<?xml version="1.0" encoding="UTF-8"?>
<!-- Generator: Adobe Illustrator 15.1.0, SVG Export Plug-In . SVG Version: 6.00 Build 0)  -->
<!DOCTYPE svg PUBLIC "-//W3C//DTD SVG 1.1//EN" "http://www.w3.org/Graphics/SVG/1.1/DTD/svg11.dtd">
<svg version="1.1" id="Calque_1" xmlns="http://www.w3.org/2000/svg" xmlns:xlink="http://www.w3.org/1999/xlink" x="0px" y="0px" width="559.911px" height="453.936px" viewBox="0 -60.842 559.911 453.936" enable-background="new 0 -60.842 559.911 453.936" xml:space="preserve">
<g>
	<path fill="#187CC0" d="M104.177,313.469V118.063V-0.896v-46.757c0-6.063,3.659-8.292,10.677-6.749L347.463-3.979   c8.489,1.875,11.702,5.396,11.702,14.94l0.001,19.073h3.895L363.059,6.77c0-9.804-3.312-13.419-12.058-15.344L111.357-60.357   c-7.229-1.585-11,0.706-11,6.93v48.021v122.172v200.683h3.819V313.469z"/>
	<path fill="#187CC0" d="M359.174,261.716l0.003,59.578c0,9.537-3.205,13.063-11.707,14.933l-232.593,50.41   c-7.041,1.584-10.7-0.683-10.7-6.724V317.45c-1.485-0.001-2.768-0.002-3.819-0.002v68.238c0,6.205,3.771,8.531,11.022,6.905   l239.629-51.772c8.76-1.918,12.062-5.54,12.062-15.336l-0.002-63.769L359.174,261.716L359.174,261.716z"/>
</g>
<path fill="#187CC0" d="M192.31-6.441L9.219,33.123c-6.684,1.472-9.212,4.234-9.212,11.724L0,288.345  c0,7.483,2.522,10.252,9.215,11.716l183.078,39.556c5.541,1.241,8.422-0.536,8.422-5.274v-52.136  c-20.19,0.01-149.473,0.049-149.54,0h149.54V128.882v-93.34V-1.146C200.714-5.902,197.833-7.652,192.31-6.441z"/>
<path fill="#FFFFFF" d="M200.703,200.003c-6.041-21.256-23.396-32.64-47.608-35.345c0.021,0,25.161-18.527,47.62-36.736V88.204  H56.331l-0.004,44.236h81.376c-0.165,0.131-50.974,39.425-50.974,39.425l19.034,28.458c0,0,11.439-5.895,21.753-5.895  c18.272,0,25.467,7.656,25.467,24.911c0,18.707-8.579,26.975-25.831,26.975c-20.896,0-25.177-14.939-25.177-25.656H50.591  c-0.966,36.361,21.262,62.32,74.048,62.32c40.854,0,68.189-14.247,76.063-44.908L200.703,200.003L200.703,200.003z"/>
<g>
	<path fill="none" d="M182.235,58.998c-4.952,0-5.223,2.795-5.496,5.12h9.964C186.703,61.445,186.167,58.998,182.235,58.998z"/>
	<path fill="none" d="M96.043,71.389c0,2.376,1.84,2.726,3.188,2.726c3.646,0,5.172-1.97,5.126-4.956v-2.365   c-0.229,0.139-0.484,0.273-0.695,0.354C100.799,68.502,96.043,67.148,96.043,71.389z"/>
	<path fill="#FFFFFF" d="M110.201,71.75v-9.778c0-5.609-2.914-7.624-9.186-7.624c-7.644,0-10.02,2.935-10.15,6.834v1.006h5.552   c0.19-1.889,0-3.54,4.3-3.54c2.896,0,3.64,1.084,3.64,2.704c0,1.055-0.229,1.936-0.576,2.232c-1.245,0.887-7.781,0.533-10.686,1.81   c-1.752,0.865-3.152,2.368-3.152,5.7c0,4.642,2.423,7.45,8.33,7.45c3.063,0,5.015-0.529,6.624-3.377   c0.287,0.521,0.553,1.352,1.2,1.93c0.838,0.697,1.667,0.831,2.756,0.831h3.029v-4.471c-0.736,0.041-1.172-0.185-1.356-0.309   C110.339,73.025,110.201,72.713,110.201,71.75z M104.356,69.159c0.046,2.986-1.481,4.956-5.126,4.956   c-1.349,0-3.188-0.35-3.188-2.726c0-4.241,4.756-2.888,7.618-4.241c0.211-0.082,0.467-0.217,0.695-0.354L104.356,69.159   L104.356,69.159z"/>
	<path fill="#FFFFFF" d="M129.734,54.348c-5.144,0-5.685,2.326-6.121,3.728v-3.124h-5.873v22.977h6.086V63.114   c0-3.154,1.358-3.994,3.896-3.994c3.155,0,4.034,1.322,4.034,3.6v15.208h6.08V61.666C137.837,56.194,135.035,54.348,129.734,54.348   z"/>
	<path fill="#FFFFFF" d="M77.929,59.251v-4.299H72.5v22.977h6.074V65.519c0-1.09,0.135-3.232,1.139-4.512   c0.858-1.049,2.15-1.399,3.55-1.399h3.711v-5.046c-1.004-0.13-1.976-0.215-2.972-0.215C79.399,54.348,78.783,56.894,77.929,59.251z   "/>
	<path fill="#FFFFFF" d="M58.079,47.459c-1.354,1.106-1.749,2.496-1.749,4.299v3.194h-3.039v3.955h3.039v19.021h6.072V58.907h3.811   v-3.955h-3.811v-2.45c0-0.611,0.096-0.91,0.306-1.228c0.274-0.347,1.066-0.396,1.816-0.396h1.688v-4.645h-3.179   C61.541,46.233,59.399,46.409,58.079,47.459z"/>
	<path fill="#FFFFFF" d="M181.977,54.348c-8.548,0-11.43,4.864-11.43,12.18c0,8.027,3.318,12.017,11.156,12.017   c9.105,0,10.375-4.559,10.859-7.419h-5.945c-0.387,1.369-0.66,2.812-4.418,2.812c-4.341,0-5.615-1.886-5.615-5.56h16.379   C193.311,61.752,192.08,54.348,181.977,54.348z M176.739,64.118c0.273-2.325,0.544-5.12,5.496-5.12c3.933,0,4.468,2.447,4.468,5.12   H176.739z"/>
	<path fill="#FFFFFF" d="M155.065,74.074c-3.942,0-5.12-2.768-5.12-8.072c0-3.638,0.92-7.005,5.391-7.005   c4.515,0,4.443,2.083,4.761,3.86h5.813c0-4.474-2.586-8.51-10.182-8.51c-8.814,0-11.773,5.126-11.773,12.005   c0,8.142,4.01,12.191,11.291,12.191c8.971,0,10.855-5.558,10.855-9.168h-6.008C159.779,71.83,160.095,74.074,155.065,74.074z"/>
</g>
<g>
	<path fill="#187CC0" d="M252.48,54.436c-1.279,0-2.48,0.188-3.601,0.56c-1.121,0.374-2.08,1.04-2.881,2   c-0.905,1.174-1.479,2.587-1.719,4.24c-0.24,1.654-0.361,2.988-0.361,4v22.64H232.8v-41.92h9.921v7.84   c0.373-1.065,0.771-2.132,1.198-3.199c0.429-1.066,1.027-2.026,1.802-2.881c0.771-0.853,1.799-1.546,3.079-2.079   c1.279-0.532,2.96-0.801,5.039-0.801c0.906,0,1.813,0.04,2.722,0.12c0.905,0.08,1.813,0.174,2.721,0.28v9.2H252.48z"/>
	<path fill="#187CC0" d="M288.8,87.876v-27.68c0-1.492-0.188-2.68-0.561-3.56c-0.373-0.881-0.879-1.561-1.52-2.04   c-0.642-0.48-1.4-0.787-2.279-0.92c-0.881-0.133-1.828-0.2-2.842-0.2c-2.613,0-4.479,0.547-5.601,1.64   c-1.119,1.094-1.68,3.08-1.68,5.96v26.8h-11.119v-57.84h11.119v20.88c0.426-1.12,0.906-2.065,1.438-2.84   c0.533-0.771,1.24-1.4,2.121-1.88c0.879-0.48,2-0.826,3.359-1.04c1.359-0.212,3.107-0.32,5.24-0.32c1.227,0,2.627,0.095,4.199,0.28   c1.573,0.188,3.04,0.76,4.399,1.72c1.361,0.96,2.506,2.429,3.439,4.4c0.934,1.974,1.399,4.748,1.399,8.32v28.319H288.8   L288.8,87.876z"/>
	<path fill="#187CC0" d="M345.719,75.876c-0.72,2.721-1.906,5.055-3.56,7c-1.654,1.947-3.828,3.454-6.521,4.521   c-2.693,1.065-6.039,1.601-10.039,1.601c-6.881,0-12.08-1.731-15.601-5.2c-3.52-3.466-5.28-8.985-5.28-16.56   c0-4.373,0.532-8,1.602-10.88c1.066-2.88,2.559-5.172,4.479-6.88c1.921-1.707,4.175-2.906,6.761-3.601   c2.588-0.691,5.399-1.04,8.44-1.04c7.039,0,12.267,1.761,15.681,5.28c3.411,3.521,5.118,9.094,5.118,16.72   C346.798,70.144,346.439,73.156,345.719,75.876z M333.638,56.316c-1.359-2.052-3.773-3.08-7.238-3.08c-1.869,0-3.469,0.2-4.801,0.6   c-1.334,0.4-2.429,1.095-3.279,2.08c-0.855,0.987-1.48,2.36-1.881,4.12s-0.601,4-0.601,6.72c0,4.96,0.691,8.521,2.08,10.681   c1.388,2.16,3.813,3.24,7.279,3.24c2.24,0,4.053-0.319,5.439-0.961c1.387-0.64,2.452-1.586,3.2-2.84   c0.746-1.252,1.24-2.8,1.48-4.64c0.238-1.84,0.359-3.96,0.359-6.36C335.679,61.556,335,58.37,333.638,56.316z M330.798,41.396   l-4.159-6.08l-4.158,6.08h-5.041l4.32-12.16h9.68l4.32,12.16H330.798z"/>
	<path fill="#187CC0" d="M378.158,87.876v-27.76c0-2.08-0.508-3.693-1.52-4.84c-1.015-1.146-2.961-1.72-5.841-1.72   c-2.348,0-4.12,0.493-5.319,1.479c-1.201,0.987-1.801,2.92-1.801,5.8v27.04h-11.119v-41.92h10.719v5.681   c0.213-0.641,0.467-1.36,0.762-2.16c0.291-0.8,0.826-1.533,1.601-2.2c0.771-0.666,1.852-1.24,3.239-1.72   c1.386-0.48,3.252-0.721,5.601-0.721c2.399,0,4.533,0.229,6.399,0.681c1.865,0.454,3.412,1.199,4.64,2.239   c1.227,1.04,2.16,2.414,2.801,4.12c0.641,1.708,0.959,3.814,0.959,6.32v29.68H378.158L378.158,87.876z"/>
	<path fill="#187CC0" d="M405.117,70.436c0,3.359,0.721,5.894,2.16,7.6c1.441,1.707,4.133,2.561,8.08,2.561   c1.707,0,3.053-0.146,4.041-0.439c0.985-0.293,1.746-0.681,2.279-1.16s0.92-1.025,1.16-1.64c0.239-0.613,0.438-1.24,0.6-1.88   h10.881c-0.215,1.279-0.588,2.708-1.121,4.279c-0.533,1.574-1.492,3.04-2.879,4.4c-1.389,1.359-3.334,2.507-5.84,3.439   c-2.508,0.933-5.84,1.399-10,1.399c-7.148,0-12.334-1.826-15.562-5.479c-3.229-3.652-4.84-9.133-4.84-16.439   c0-3.36,0.359-6.399,1.08-9.12c0.719-2.72,1.893-5.053,3.521-7c1.627-1.945,3.772-3.453,6.438-4.52s5.947-1.601,9.84-1.601   c4.642,0,8.32,0.774,11.041,2.32c2.722,1.548,4.771,3.534,6.16,5.96c1.388,2.427,2.252,5.16,2.601,8.2   c0.346,3.04,0.438,6.08,0.278,9.12L405.117,70.436L405.117,70.436z M423.318,59.156c-0.188-1.12-0.561-2.12-1.121-3   c-0.559-0.88-1.373-1.572-2.439-2.08c-1.067-0.506-2.508-0.76-4.319-0.76c-2.24,0-4,0.294-5.279,0.88   c-1.281,0.588-2.254,1.334-2.92,2.24c-0.668,0.907-1.107,1.907-1.32,3c-0.213,1.094-0.399,2.174-0.561,3.24h18.24   C423.597,61.45,423.504,60.276,423.318,59.156z"/>
	<path fill="#187CC0" d="M266.08,167.876c-1.014,0-1.92-0.093-2.719-0.279c-0.801-0.187-1.574-0.601-2.32-1.239   c-0.588-0.533-1.041-1.133-1.36-1.801c-0.318-0.666-0.613-1.239-0.879-1.721c-0.748,1.28-1.521,2.334-2.32,3.16   c-0.801,0.827-1.693,1.454-2.68,1.88c-0.988,0.427-2.068,0.721-3.24,0.88c-1.174,0.16-2.453,0.24-3.84,0.24   c-5.39,0-9.269-1.2-11.642-3.601c-2.373-2.399-3.561-5.732-3.561-10c0-3.039,0.547-5.347,1.641-6.92   c1.094-1.572,2.467-2.732,4.121-3.479c1.279-0.586,2.92-1.013,4.92-1.28c2-0.266,3.986-0.479,5.959-0.64s3.76-0.32,5.359-0.479   c1.602-0.16,2.692-0.452,3.28-0.881c0.32-0.266,0.572-0.771,0.761-1.52c0.186-0.746,0.278-1.601,0.278-2.561   c0-1.492-0.452-2.692-1.358-3.601c-0.908-0.906-2.668-1.36-5.279-1.36c-1.975,0-3.469,0.175-4.479,0.521   c-1.015,0.348-1.761,0.827-2.24,1.439c-0.48,0.613-0.773,1.308-0.881,2.079c-0.107,0.773-0.188,1.589-0.238,2.44h-10.16v-1.84   c0-1.761,0.305-3.4,0.92-4.921c0.611-1.521,1.64-2.84,3.08-3.96c1.439-1.119,3.346-2,5.719-2.641c2.373-0.64,5.32-0.96,8.841-0.96   c5.706,0,9.934,1.04,12.682,3.12c2.746,2.08,4.119,5.68,4.119,10.8v17.841c0,0.907,0.053,1.533,0.16,1.88   c0.104,0.348,0.239,0.573,0.399,0.681s0.439,0.239,0.84,0.399c0.401,0.159,0.945,0.214,1.64,0.159v8.16h-5.521V167.876z    M257.839,147.556c-0.428,0.268-0.854,0.479-1.278,0.641c-1.279,0.64-2.734,1.04-4.359,1.199c-1.629,0.16-3.147,0.399-4.561,0.721   c-1.414,0.319-2.601,0.895-3.562,1.72c-0.959,0.827-1.438,2.2-1.438,4.12c0,1.067,0.186,1.935,0.561,2.601   c0.371,0.668,0.853,1.174,1.439,1.521c0.586,0.349,1.213,0.573,1.879,0.68c0.668,0.107,1.319,0.16,1.961,0.16   c3.358,0,5.76-0.826,7.199-2.479c1.44-1.652,2.159-3.84,2.159-6.561V147.556z"/>
	<path fill="#187CC0" d="M277.439,167.876v-57.84h11.121v57.84H277.439z"/>
	<path fill="#187CC0" d="M335.72,155.836c-0.562,2.641-1.509,4.935-2.841,6.88c-1.334,1.947-3.12,3.48-5.36,4.602   c-2.24,1.119-5.066,1.68-8.48,1.68c-3.199,0-5.68-0.494-7.438-1.479c-1.76-0.986-3.039-2.093-3.84-3.319v17.521h-11.12v-55.761   h10.719v4.96c0.373-0.64,0.867-1.307,1.479-2c0.613-0.691,1.373-1.347,2.279-1.96c0.906-0.611,2.027-1.12,3.361-1.521   c1.332-0.399,2.959-0.601,4.879-0.601c3.094,0,5.731,0.574,7.92,1.721c2.188,1.146,3.973,2.733,5.361,4.761   c1.385,2.027,2.385,4.413,3,7.159c0.61,2.748,0.92,5.721,0.92,8.92C336.56,150.384,336.279,153.196,335.72,155.836z    M323.439,136.356c-1.228-1.974-3.359-2.961-6.4-2.961c-3.039,0-5.412,0.987-7.119,2.961s-2.561,5.387-2.561,10.239   c0,2.026,0.16,3.907,0.479,5.641c0.32,1.733,0.854,3.228,1.601,4.479c0.746,1.255,1.731,2.229,2.961,2.921   c1.227,0.693,2.771,1.039,4.639,1.039c2.08,0,3.668-0.386,4.763-1.159c1.092-0.772,1.905-1.826,2.438-3.159   c0.531-1.333,0.84-2.921,0.92-4.761c0.08-1.841,0.119-3.854,0.119-6.04C325.279,141.396,324.666,138.33,323.439,136.356z"/>
	<path fill="#187CC0" d="M351.279,150.436c0,3.359,0.721,5.895,2.16,7.601c1.438,1.707,4.133,2.561,8.08,2.561   c1.705,0,3.053-0.146,4.039-0.439c0.985-0.293,1.746-0.681,2.28-1.16c0.531-0.479,0.921-1.025,1.16-1.64   c0.238-0.613,0.439-1.24,0.601-1.881h10.879c-0.213,1.279-0.588,2.708-1.119,4.279c-0.533,1.574-1.494,3.04-2.881,4.4   c-1.388,1.359-3.334,2.507-5.84,3.439c-2.509,0.933-5.841,1.399-10,1.399c-7.146,0-12.334-1.826-15.562-5.479   c-3.227-3.652-4.84-9.133-4.84-16.439c0-3.36,0.361-6.399,1.08-9.12c0.721-2.72,1.893-5.053,3.521-7   c1.625-1.945,3.771-3.452,6.439-4.521c2.666-1.065,5.945-1.601,9.84-1.601c4.641,0,8.32,0.773,11.039,2.32   c2.721,1.547,4.773,3.533,6.16,5.96c1.387,2.428,2.254,5.16,2.602,8.2c0.347,3.04,0.439,6.079,0.279,9.119L351.279,150.436   L351.279,150.436z M369.478,139.156c-0.188-1.12-0.56-2.12-1.119-3c-0.561-0.88-1.375-1.573-2.439-2.08   c-1.067-0.507-2.508-0.76-4.319-0.76c-2.24,0-4,0.293-5.281,0.88c-1.279,0.587-2.254,1.333-2.92,2.239   c-0.666,0.908-1.107,1.908-1.32,3c-0.213,1.094-0.397,2.174-0.559,3.239h18.24C369.76,141.45,369.666,140.276,369.478,139.156z"/>
	<path fill="#187CC0" d="M417.958,165.796c-3.278,2.134-8.065,3.2-14.358,3.2c-3.041,0-5.642-0.294-7.802-0.88   c-2.159-0.587-3.946-1.333-5.358-2.24c-1.414-0.905-2.521-1.945-3.32-3.12c-0.801-1.173-1.399-2.359-1.801-3.56   c-0.398-1.2-0.652-2.333-0.76-3.4c-0.107-1.065-0.16-2-0.16-2.8h10.479c0.054,1.015,0.134,1.987,0.24,2.92   c0.105,0.935,0.426,1.747,0.961,2.44c0.531,0.692,1.385,1.239,2.56,1.64c1.174,0.399,2.881,0.601,5.12,0.601   c1.066,0,2.093-0.026,3.08-0.08c0.986-0.053,1.853-0.239,2.601-0.561c0.746-0.319,1.346-0.826,1.799-1.521   c0.453-0.692,0.682-1.681,0.682-2.96c0-0.96-0.215-1.692-0.641-2.199c-0.428-0.507-1.094-0.92-2-1.24   c-0.908-0.32-2.08-0.601-3.52-0.84c-1.441-0.24-3.175-0.573-5.201-1c-2.613-0.533-4.854-1.146-6.72-1.84   c-1.866-0.693-3.399-1.533-4.602-2.521c-1.199-0.985-2.078-2.133-2.639-3.439c-0.562-1.307-0.84-2.893-0.84-4.76   c0-2.507,0.465-4.587,1.399-6.24c0.932-1.652,2.199-2.96,3.799-3.92c1.601-0.96,3.468-1.641,5.601-2.04s4.373-0.601,6.721-0.601   c2.986,0,5.492,0.28,7.52,0.84c2.027,0.562,3.707,1.295,5.041,2.2c1.332,0.907,2.347,1.907,3.039,3   c0.693,1.095,1.214,2.16,1.562,3.2c0.346,1.04,0.547,2.014,0.6,2.92c0.054,0.907,0.105,1.601,0.16,2.08h-10.479   c-0.107-0.96-0.24-1.813-0.4-2.561c-0.158-0.746-0.506-1.372-1.039-1.881c-0.533-0.506-1.279-0.893-2.24-1.159   c-0.959-0.267-2.268-0.399-3.92-0.399c-0.801,0-1.6,0.04-2.399,0.12s-1.509,0.268-2.119,0.56c-0.613,0.294-1.121,0.694-1.521,1.2   c-0.399,0.508-0.602,1.16-0.602,1.96c0,0.854,0.188,1.521,0.561,2s1.027,0.895,1.961,1.24c0.933,0.348,2.211,0.68,3.841,1   c1.625,0.319,3.69,0.747,6.198,1.279c4.533,0.96,7.974,2.428,10.32,4.399c2.347,1.975,3.521,4.907,3.521,8.8   C422.879,160.276,421.238,163.663,417.958,165.796z"/>
	<path fill="#187CC0" d="M266.08,247.876c-1.014,0-1.92-0.093-2.719-0.279c-0.801-0.187-1.574-0.601-2.32-1.239   c-0.588-0.533-1.041-1.133-1.36-1.801c-0.318-0.666-0.613-1.239-0.879-1.721c-0.748,1.28-1.521,2.334-2.32,3.16   c-0.801,0.827-1.693,1.454-2.68,1.88c-0.988,0.427-2.068,0.721-3.24,0.88c-1.174,0.16-2.453,0.24-3.84,0.24   c-5.39,0-9.269-1.2-11.642-3.601c-2.373-2.399-3.561-5.732-3.561-10c0-3.039,0.547-5.347,1.641-6.92   c1.094-1.572,2.467-2.732,4.121-3.479c1.279-0.586,2.92-1.013,4.92-1.28c2-0.266,3.986-0.479,5.959-0.64s3.76-0.32,5.359-0.479   c1.602-0.16,2.692-0.452,3.28-0.881c0.32-0.266,0.572-0.771,0.761-1.52c0.186-0.746,0.278-1.601,0.278-2.561   c0-1.492-0.452-2.692-1.358-3.601c-0.908-0.906-2.668-1.36-5.279-1.36c-1.975,0-3.469,0.175-4.479,0.521   c-1.015,0.348-1.761,0.827-2.24,1.439c-0.48,0.613-0.773,1.308-0.881,2.079c-0.107,0.773-0.188,1.589-0.238,2.44h-10.16v-1.84   c0-1.761,0.305-3.4,0.92-4.921c0.611-1.521,1.64-2.84,3.08-3.96c1.439-1.119,3.346-2,5.719-2.641c2.373-0.64,5.32-0.96,8.841-0.96   c5.706,0,9.934,1.04,12.682,3.12c2.746,2.08,4.119,5.68,4.119,10.8v17.841c0,0.907,0.053,1.533,0.16,1.88   c0.104,0.348,0.239,0.573,0.399,0.681s0.439,0.239,0.84,0.399c0.401,0.159,0.945,0.214,1.64,0.159v8.16h-5.521V247.876z    M257.839,227.556c-0.428,0.268-0.854,0.479-1.278,0.641c-1.279,0.64-2.734,1.04-4.359,1.199c-1.629,0.16-3.147,0.399-4.561,0.721   c-1.414,0.319-2.601,0.895-3.562,1.72c-0.959,0.827-1.438,2.2-1.438,4.12c0,1.067,0.186,1.935,0.561,2.601   c0.371,0.668,0.853,1.174,1.439,1.521c0.586,0.349,1.213,0.573,1.879,0.68c0.668,0.107,1.319,0.16,1.961,0.16   c3.358,0,5.76-0.826,7.199-2.479c1.44-1.652,2.159-3.84,2.159-6.561V227.556z"/>
	<path fill="#187CC0" d="M302.16,247.876v-4.64c-0.428,0.747-0.84,1.467-1.24,2.159c-0.399,0.693-1.014,1.308-1.84,1.841   c-0.828,0.533-1.946,0.96-3.358,1.279c-1.414,0.319-3.32,0.479-5.722,0.479c-3.198,0-5.707-0.468-7.52-1.399   c-1.814-0.934-3.188-2.053-4.121-3.359c-0.934-1.307-1.521-2.653-1.76-4.04c-0.24-1.387-0.359-2.533-0.359-3.44v-30.8h11.119v27.92   c0,4.269,2.373,6.4,7.121,6.4c2.826,0,4.771-0.562,5.84-1.681c1.066-1.12,1.6-2.881,1.6-5.279v-27.36h11.121v41.92H302.16z"/>
	<path fill="#187CC0" d="M341.439,247.876h-10.56l-15.2-41.92h12.08l8.561,29.76l8.48-29.76h11.76L341.439,247.876z"/>
	<path fill="#187CC0" d="M367.599,230.436c0,3.359,0.721,5.895,2.16,7.601c1.44,1.707,4.133,2.561,8.079,2.561   c1.707,0,3.054-0.146,4.041-0.439c0.986-0.293,1.746-0.681,2.279-1.16s0.92-1.025,1.16-1.64s0.438-1.24,0.6-1.881H396.8   c-0.215,1.279-0.588,2.708-1.12,4.279c-0.533,1.574-1.492,3.04-2.88,4.4c-1.389,1.359-3.334,2.507-5.84,3.439   c-2.508,0.933-5.84,1.399-10,1.399c-7.147,0-12.334-1.826-15.561-5.479c-3.229-3.652-4.84-9.133-4.84-16.439   c0-3.36,0.358-6.399,1.08-9.12c0.719-2.72,1.893-5.053,3.52-7c1.627-1.945,3.773-3.452,6.439-4.521   c2.666-1.065,5.946-1.601,9.84-1.601c4.641,0,8.319,0.773,11.041,2.32c2.721,1.547,4.771,3.533,6.16,5.96   c1.387,2.428,2.252,5.16,2.6,8.2c0.346,3.04,0.439,6.079,0.279,9.119L367.599,230.436L367.599,230.436z M385.8,219.156   c-0.188-1.12-0.561-2.12-1.12-3s-1.373-1.573-2.439-2.08c-1.068-0.507-2.508-0.76-4.32-0.76c-2.239,0-4,0.293-5.278,0.88   c-1.281,0.587-2.254,1.333-2.92,2.239c-0.668,0.908-1.107,1.908-1.32,3c-0.213,1.094-0.4,2.174-0.562,3.239h18.24   C386.08,221.45,385.986,220.276,385.8,219.156z"/>
	<path fill="#187CC0" d="M422.48,214.436c-1.281,0-2.48,0.188-3.603,0.561c-1.118,0.374-2.08,1.04-2.879,2   c-0.907,1.174-1.479,2.587-1.721,4.24s-0.359,2.987-0.359,4v22.64h-11.121v-41.92h9.921v7.84c0.372-1.065,0.772-2.133,1.2-3.199   c0.427-1.066,1.025-2.026,1.8-2.881c0.772-0.853,1.801-1.546,3.079-2.079c1.281-0.532,2.962-0.801,5.042-0.801   c0.905,0,1.813,0.04,2.719,0.12s1.813,0.174,2.721,0.28v9.199H422.48z"/>
	<path fill="#187CC0" d="M465.119,258.316c-3.307,2.266-8.453,3.398-15.438,3.398c-3.31,0-6.041-0.348-8.199-1.04   c-2.16-0.692-3.869-1.627-5.121-2.8c-1.254-1.174-2.133-2.548-2.641-4.12c-0.506-1.572-0.761-3.239-0.761-5h10   c0.054,0.746,0.134,1.4,0.24,1.96c0.107,0.562,0.387,1.026,0.84,1.4c0.453,0.372,1.175,0.652,2.16,0.84   c0.986,0.188,2.439,0.28,4.359,0.28c2.561,0,4.602-0.308,6.121-0.92c1.52-0.614,2.279-1.96,2.279-4.04v-7.92   c-0.107,0.159-0.32,0.493-0.64,1c-0.32,0.507-0.869,1.054-1.641,1.64c-0.773,0.587-1.802,1.107-3.08,1.561   c-1.279,0.453-2.935,0.681-4.961,0.681c-2.506,0-4.854-0.333-7.039-1c-2.188-0.667-4.08-1.761-5.681-3.28   c-1.6-1.521-2.866-3.532-3.801-6.04c-0.934-2.506-1.399-5.6-1.399-9.279c0-3.2,0.348-6.08,1.041-8.641   c0.69-2.561,1.731-4.731,3.118-6.521c1.388-1.786,3.16-3.172,5.32-4.159c2.16-0.986,4.732-1.48,7.721-1.48   c2.08,0,3.813,0.24,5.199,0.721c1.388,0.479,2.533,1.08,3.439,1.801c0.906,0.72,1.627,1.493,2.16,2.319   c0.533,0.827,0.961,1.561,1.28,2.199v-5.92h10.08v41.681C470.08,252.488,468.426,256.049,465.119,258.316z M457.48,216.196   c-1.094-1.973-3.188-2.96-6.281-2.96c-3.307,0-5.692,0.867-7.16,2.6c-1.467,1.733-2.198,4.681-2.198,8.84   c0,1.549,0.053,3.067,0.159,4.562c0.105,1.493,0.439,2.827,1,4c0.56,1.174,1.451,2.12,2.681,2.84c1.227,0.72,2.959,1.08,5.199,1.08   c1.92,0,3.428-0.36,4.521-1.08c1.092-0.72,1.92-1.666,2.479-2.84c0.561-1.173,0.905-2.467,1.041-3.88   c0.133-1.413,0.198-2.813,0.198-4.2C459.119,221.156,458.572,218.17,457.48,216.196z"/>
	<path fill="#187CC0" d="M502.959,247.876v-27.76c0-2.08-0.509-3.692-1.521-4.84c-1.014-1.146-2.959-1.721-5.84-1.721   c-2.348,0-4.119,0.493-5.32,1.479c-1.199,0.987-1.799,2.92-1.799,5.8v27.04h-11.121v-41.92h10.721v5.681   c0.213-0.641,0.468-1.359,0.761-2.16s0.825-1.532,1.6-2.199s1.854-1.24,3.24-1.721c1.387-0.479,3.252-0.721,5.6-0.721   c2.4,0,4.533,0.229,6.4,0.681c1.867,0.454,3.412,1.199,4.641,2.239c1.228,1.04,2.16,2.414,2.799,4.12   c0.642,1.707,0.961,3.813,0.961,6.32v29.68L502.959,247.876L502.959,247.876z"/>
	<path fill="#187CC0" d="M529.918,230.436c0,3.359,0.721,5.895,2.159,7.601c1.439,1.707,4.134,2.561,8.08,2.561   c1.705,0,3.054-0.146,4.039-0.439c0.986-0.293,1.746-0.681,2.281-1.16c0.531-0.479,0.92-1.025,1.16-1.64   c0.237-0.613,0.438-1.24,0.6-1.881h10.879c-0.213,1.279-0.588,2.708-1.119,4.279c-0.532,1.574-1.493,3.04-2.881,4.4   c-1.387,1.359-3.334,2.507-5.84,3.439c-2.508,0.933-5.84,1.399-10,1.399c-7.146,0-12.334-1.826-15.561-5.479   c-3.228-3.652-4.841-9.133-4.841-16.439c0-3.36,0.361-6.399,1.08-9.12c0.722-2.72,1.894-5.053,3.521-7   c1.625-1.945,3.771-3.452,6.439-4.521c2.666-1.065,5.944-1.601,9.84-1.601c4.641,0,8.319,0.773,11.039,2.32   c2.721,1.547,4.772,3.533,6.159,5.96c1.388,2.428,2.255,5.16,2.603,8.2c0.346,3.04,0.438,6.079,0.279,9.119L529.918,230.436   L529.918,230.436z M548.117,219.156c-0.188-1.12-0.559-2.12-1.119-3c-0.56-0.88-1.375-1.573-2.438-2.08   c-1.068-0.507-2.508-0.76-4.32-0.76c-2.239,0-4,0.293-5.28,0.88c-1.279,0.587-2.255,1.333-2.921,2.239   c-0.666,0.908-1.106,1.908-1.319,3c-0.213,1.094-0.398,2.174-0.56,3.239h18.24C548.398,221.45,548.304,220.276,548.117,219.156z"/>
</g>
</svg>