<?xml version="1.0" encoding="UTF-8" standalone="no"?>
<!-- Created with Inkscape (http://www.inkscape.org/) -->

<svg
   xmlns:dc="http://purl.org/dc/elements/1.1/"
   xmlns:cc="http://creativecommons.org/ns#"
   xmlns:rdf="http://www.w3.org/1999/02/22-rdf-syntax-ns#"
   xmlns:svg="http://www.w3.org/2000/svg"
   xmlns="http://www.w3.org/2000/svg"
   xmlns:sodipodi="http://sodipodi.sourceforge.net/DTD/sodipodi-0.dtd"
   xmlns:inkscape="http://www.inkscape.org/namespaces/inkscape"
   width="500"
   height="250"
   id="svg3563"
   version="1.1"
   inkscape:version="0.48.4 r9939"
   sodipodi:docname="logosimplonvelignervb.svg">
  <defs
     id="defs3565" />
  <sodipodi:namedview
     id="base"
     pagecolor="#ffffff"
     bordercolor="#666666"
     borderopacity="1.0"
     inkscape:pageopacity="0.0"
     inkscape:pageshadow="2"
     inkscape:zoom="1.4"
     inkscape:cx="538.32702"
     inkscape:cy="170.21026"
     inkscape:document-units="px"
     inkscape:current-layer="layer1"
     showgrid="false"
     inkscape:window-width="976"
     inkscape:window-height="541"
     inkscape:window-x="406"
     inkscape:window-y="235"
     inkscape:window-maximized="0" />
  <metadata
     id="metadata3568">
    <rdf:RDF>
      <cc:Work
         rdf:about="">
        <dc:format>image/svg+xml</dc:format>
        <dc:type
           rdf:resource="http://purl.org/dc/dcmitype/StillImage" />
        <dc:title />
      </cc:Work>
    </rdf:RDF>
  </metadata>
  <g
     inkscape:label="Calque 1"
     inkscape:groupmode="layer"
     id="layer1"
     transform="translate(0,-802.36217)">
    <rect
       style="fill:#efc308;fill-opacity:1;stroke:none;display:inline"
       id="rect3957-0"
       width="10.195801"
       height="10.530089"
       x="333.91199"
       y="909.99341" />
    <path
       sodipodi:type="arc"
       style="fill:#000000;fill-opacity:1;stroke:none;display:inline"
       id="path3922-9"
       sodipodi:cx="2648.2634"
       sodipodi:cy="2262.6082"
       sodipodi:rx="13.930511"
       sodipodi:ry="13.930511"
       d="m 2662.1939,2262.6082 a 13.930511,13.930511 0 1 1 -27.861,0 13.930511,13.930511 0 1 1 27.861,0 z"
       transform="matrix(0.16987985,0,0,0.15088235,-89.06443,657.40372)" />
    <path
       style="fill:#789c3c;fill-opacity:1;stroke:none;display:inline"
       d="m 357.66566,964.9188 15.94396,35.6859 5.02837,-0.047 c 0,0 17.4275,-40.1381 18.37302,-42.58058 0.94552,-2.44258 3.76181,-8.55931 11.10975,-9.69148 -6.82833,0.093 -13.99243,5.94685 -15.96224,10.51686 -1.96982,4.5699 -16.08803,35.4933 -16.08803,35.4933 L 363.3435,964.8901 z"
       id="path3924-1"
       inkscape:connector-curvature="0"
       sodipodi:nodetypes="cccccsccc" />
    <rect
       style="fill:#ffd100;fill-opacity:1;stroke:none;display:inline"
       id="rect3926-6"
       width="5.3530684"
       height="13.264565"
       x="397.48029"
       y="964.73352" />
    <path
       style="fill:#075387;fill-opacity:1;stroke:none;display:inline"
       d="m 407.00975,964.7915 28.38668,0.056 0.0278,4.5127 -23.01019,-0.056 -0.0557,10.8088 22.6759,-0.1118 -0.0278,4.5407 -22.75945,-0.027 -0.0557,11.3102 23.7902,-0.1389 0,4.5965 -29.02739,0.056 z"
       id="path3928-6"
       inkscape:connector-curvature="0"
       sodipodi:nodetypes="ccccccccccccc" />
    <path
       style="fill:#000000;fill-opacity:1;stroke:none;display:inline"
       d="m 53.554189,920.70904 c 2.363769,16.94042 20.958461,23.9926 33.880797,15.20697 12.922334,-8.78561 8.352007,-23.48018 7.012532,-26.23792 -9.455115,-16.38886 -25.84395,-11.03096 -26.868263,-23.71657 -0.15759,-2.52136 1.339474,-6.77615 4.648763,-7.72166 3.939628,-1.18189 8.352007,-1.0243 10.558205,6.69737 l 7.721667,-3.07293 c -2.600154,-8.27321 -11.424911,-14.26144 -21.667956,-10.5582 -11.503707,5.43669 -10.47941,16.46765 -8.982347,19.77694 6.539783,13.86749 18.752623,9.29752 26.395496,20.72245 3.151717,6.14581 2.678949,13.47352 -3.860834,18.20108 -4.333584,3.38808 -18.595033,5.3579 -20.564847,-12.21286 z"
       id="path3876-1"
       inkscape:connector-curvature="0"
       sodipodi:nodetypes="czccccccccccc" />
    <rect
       style="fill:#000000;fill-opacity:1;stroke:none;display:inline"
       id="rect3878-2"
       width="8.4537525"
       height="67.845688"
       x="112.00749"
       y="871.14227" />
    <path
       style="fill:#000000;fill-opacity:1;stroke:none;display:inline"
       d="m 137.793,938.96584 0.009,-67.90963 9.25926,0 21.71017,28.5961 21.71017,-28.5595 9.06509,0.0557 0.009,67.76159 -8.55575,-0.11143 0.10187,-55.28534 -22.36753,29.59896 -22.29435,-29.26469 0.0557,55.12779 z"
       id="path3880-9"
       inkscape:connector-curvature="0"
       sodipodi:nodetypes="ccccccccccccc" />
    <path
       style="fill:#000000;fill-opacity:1;stroke:none;display:inline"
       d="m 235.23957,871.07805 -18.66507,0.16624 -0.0238,67.7214 8.57739,0.0285 -0.0285,-22.31258 10.62914,-0.038 c 9.19138,-0.0487 21.12997,-9.40432 21.12997,-22.77802 0,-13.20441 -11.88495,-22.73786 -21.61916,-22.78755 z m -1.91877,7.40903 c 8.76105,0.16967 15.0785,7.07425 14.95582,16.15741 -0.0126,9.91695 -9.67405,14.64593 -13.39801,14.65655 l -9.77899,0.0285 -0.0523,-30.7285 8.27341,-0.11395 z"
       id="path3882-3"
       inkscape:connector-curvature="0" />
    <path
       style="fill:#000000;fill-opacity:1;stroke:none;display:inline"
       d="m 272.23575,938.88407 0.0557,-67.74916 8.52435,-0.0557 0.0557,60.45052 24.40308,0.0557 -2e-5,7.24293 z"
       id="path3887-0"
       inkscape:connector-curvature="0"
       sodipodi:nodetypes="ccccccc" />
    <path
       style="fill:#ffd100;fill-opacity:1;stroke:none;display:inline"
       d="m 340.12011,870.21843 c -0.32729,-0.004 -0.65729,0 -0.98787,0.005 -21.1566,0.33429 -34.55659,17.36289 -35.09791,35.01242 -0.54131,17.64956 15.6139,34.86485 35.52061,34.75122 19.90674,-0.11359 35.26414,-16.96395 35.26414,-34.61348 0,-17.37379 -14.07864,-34.92949 -34.69897,-35.15491 z m -1.41531,7.54675 c 15.76479,0.15849 27.41768,11.41961 27.21395,27.95485 -0.20375,16.53527 -13.36715,26.94042 -26.91949,26.86724 -13.55233,-0.0732 -26.37548,-13.51575 -26.54427,-26.53004 -0.16876,-13.01428 10.48502,-28.4506 26.24981,-28.29205 z m -4.73513,13.87294 0,10.24915 10.24918,0 0,-10.24915 -10.24918,0 z m -0.11395,18.38484 0,0.22322 10.25391,0 0,10.13995 0.10927,0 0,-10.36317 -10.36317,0 z m 10.25391,10.36317 -10.25391,0 0,0.11395 10.25391,0 0,-0.11395 z"
       id="path3889-9"
       inkscape:connector-curvature="0" />
    <path
       style="fill:#000000;fill-opacity:1;stroke:none;display:inline"
       d="m 382.79177,938.95628 0.1401,-67.80611 8.43314,0.007 38.65614,54.29368 -0.12099,-54.27457 8.53665,-0.009 0.009,67.77908 -9.47259,-0.0366 -37.63582,-52.63344 0.0366,52.65091 z"
       id="path3916-5"
       inkscape:connector-curvature="0"
       sodipodi:nodetypes="ccccccccccc" />
  </g>
</svg>
