<?xml version="1.0" encoding="UTF-8" standalone="no"?>
<!-- Created with Inkscape (http://www.inkscape.org/) -->

<svg
   xmlns:dc="http://purl.org/dc/elements/1.1/"
   xmlns:cc="http://creativecommons.org/ns#"
   xmlns:rdf="http://www.w3.org/1999/02/22-rdf-syntax-ns#"
   xmlns:svg="http://www.w3.org/2000/svg"
   xmlns="http://www.w3.org/2000/svg"
   xmlns:sodipodi="http://sodipodi.sourceforge.net/DTD/sodipodi-0.dtd"
   xmlns:inkscape="http://www.inkscape.org/namespaces/inkscape"
   id="svg3039"
   version="1.1"
   inkscape:version="0.48.4 r9939"
   width="1350"
   height="1100"
   sodipodi:docname="logosimplonve_vert.svg">
  <metadata
     id="metadata3045">
    <rdf:RDF>
      <cc:Work
         rdf:about="">
        <dc:format>image/svg+xml</dc:format>
        <dc:type
           rdf:resource="http://purl.org/dc/dcmitype/StillImage" />
        <dc:title></dc:title>
      </cc:Work>
    </rdf:RDF>
  </metadata>
  <defs
     id="defs3043" />
  <sodipodi:namedview
     pagecolor="#ffffff"
     bordercolor="#666666"
     borderopacity="1"
     objecttolerance="10"
     gridtolerance="10"
     guidetolerance="10"
     inkscape:pageopacity="0"
     inkscape:pageshadow="2"
     inkscape:window-width="1600"
     inkscape:window-height="876"
     id="namedview3041"
     showgrid="false"
     inkscape:zoom="0.36155915"
     inkscape:cx="969.57276"
     inkscape:cy="523.85236"
     inkscape:window-x="0"
     inkscape:window-y="24"
     inkscape:window-maximized="1"
     inkscape:current-layer="svg3039" />
  <path
     style="fill:#ffffff;fill-opacity:1;stroke:none;stroke-width:1.50653696000000004px;stroke-linecap:butt;stroke-linejoin:miter;stroke-opacity:1"
     d="M 741.34829,36.082078 29.980372,334.42348 44.104152,862.98256 950.05074,1075.6868 1321.5534,611.29672 z M 738.24106,47.946055 1308.6536,612.28539 946.06019,1066.2454 54.179121,854.97909 39.631624,339.79052 z"
     id="path2982"
     inkscape:connector-curvature="0"
     sodipodi:nodetypes="cccccccccccc" />
  <text
     xml:space="preserve"
     style="font-size:122px;font-style:normal;font-weight:normal;line-height:125%;letter-spacing:0px;word-spacing:0px;fill:#ffffff;fill-opacity:1;stroke:none;font-family:Sans"
     x="319.81302"
     y="363.83646"
     id="text2996"
     sodipodi:linespacing="125%"><tspan
       sodipodi:role="line"
       id="tspan2998"
       x="319.81302"
       y="363.83646">Explorer</tspan></text>
  <text
     xml:space="preserve"
     style="font-size:122px;font-style:normal;font-weight:normal;line-height:125%;letter-spacing:0px;word-spacing:0px;fill:#ffffff;fill-opacity:1;stroke:none;font-family:Sans"
     x="474.72748"
     y="558.57684"
     id="text3000"
     sodipodi:linespacing="125%"><tspan
       sodipodi:role="line"
       id="tspan3002"
       x="474.72748"
       y="558.57684">la planète</tspan></text>
  <rect
     style="fill:#ffffff;fill-opacity:1;stroke:none;display:inline"
     id="rect3957"
     width="21.438414"
     height="22.141314"
     x="775.94348"
     y="751.50732" />
  <path
     sodipodi:type="arc"
     style="fill:#ffffff;fill-opacity:1;stroke:none;display:inline"
     id="path3922"
     sodipodi:cx="2648.2634"
     sodipodi:cy="2262.6082"
     sodipodi:rx="13.930511"
     sodipodi:ry="13.930511"
     d="m 2662.1939,2262.6082 a 13.930511,13.930511 0 1 1 -27.861,0 13.930511,13.930511 0 1 1 27.861,0 z"
     transform="matrix(0.35720143,0,0,0.31725593,-113.43688,220.394)" />
  <path
     style="fill:#ffffff;fill-opacity:1;stroke:none;display:inline"
     d="m 825.88982,866.99683 33.52485,75.03608 10.57272,-0.0986 c 0,0 36.6444,-84.39716 38.63251,-89.53322 1.98819,-5.13606 7.90979,-17.99725 23.36007,-20.37781 -14.35767,0.19715 -29.42117,12.50406 -33.5632,22.11308 -4.14195,9.60941 -33.82778,74.6308 -33.82778,74.6308 L 837.82821,866.9369 z"
     id="path3924"
     inkscape:connector-curvature="0"
     sodipodi:nodetypes="cccccsccc" />
  <rect
     style="fill:#ffffff;fill-opacity:1;stroke:none;display:inline"
     id="rect3926"
     width="11.255741"
     height="27.891016"
     x="909.60687"
     y="866.6076" />
  <path
     style="fill:#ffffff;fill-opacity:1;stroke:none;display:inline"
     d="m 929.64415,866.72917 59.68775,0.11752 0.0571,9.48923 -48.38298,-0.11753 -0.11746,22.72688 47.68001,-0.23505 -0.0571,9.5476 -47.85558,-0.0568 -0.11746,23.78163 50.02265,-0.29193 0,9.66476 -61.03488,0.11753 z"
     id="path3928"
     inkscape:connector-curvature="0"
     sodipodi:nodetypes="ccccccccccccc" />
  <path
     style="fill:#ffffff;fill-opacity:1;stroke:none;display:inline"
     d="m 186.44317,774.03856 c 4.97039,35.61993 44.0688,50.44843 71.24023,31.97498 27.17143,-18.47306 17.56165,-49.37093 14.74511,-55.16957 -19.88115,-34.46036 -54.34136,-23.19446 -56.4952,-49.86812 -0.32981,-5.30159 2.81662,-14.24801 9.77473,-16.23613 8.28397,-2.48511 17.56165,-2.15375 22.20064,14.08238 l 16.23625,-6.46136 c -5.46743,-17.39583 -24.02318,-29.98713 -45.56073,-22.20042 -24.18844,11.43157 -22.0346,34.62604 -18.88706,41.58438 13.75101,29.15878 39.4306,19.54964 55.50111,43.57251 6.62718,12.92257 5.63309,28.33038 -8.11793,38.27076 -9.11201,7.12422 -39.0992,11.26582 -43.24115,-25.67955 z"
     id="path3876"
     inkscape:connector-curvature="0"
     sodipodi:nodetypes="czccccccccccc" />
  <rect
     style="fill:#ffffff;fill-opacity:1;stroke:none;display:inline"
     id="rect3878"
     width="17.775459"
     height="142.65715"
     x="309.35144"
     y="669.81616" />
  <path
     style="fill:#ffffff;fill-opacity:1;stroke:none;display:inline"
     d="m 363.56962,812.42651 0.038,-142.79163 19.46947,0 45.64934,60.12819 45.64942,-60.05123 19.06072,0.11716 0.038,142.48037 -17.99005,-0.23507 0.21226,-116.24691 -47.03134,62.23687 -46.87773,-61.534 0.11747,115.91559 z"
     id="path3880"
     inkscape:connector-curvature="0"
     sodipodi:nodetypes="ccccccccccccc" />
  <path
     style="fill:#ffffff;fill-opacity:1;stroke:none;display:inline"
     d="m 568.46797,669.6808 -39.24662,0.34955 -0.0491,142.39578 18.03556,0.0606 -0.061,-46.91608 22.34965,-0.0796 c 19.32648,-0.10237 44.42944,-19.77409 44.42944,-47.89458 0,-27.76453 -24.99033,-47.81022 -45.45801,-47.91471 z m -4.03463,15.57875 c 18.42148,0.35676 31.70501,14.87482 31.44717,33.97371 -0.038,20.8521 -20.34134,30.79559 -28.17154,30.81792 l -20.56208,0.0599 -0.10994,-64.61193 17.39639,-0.23961 z"
     id="path3882"
     inkscape:connector-curvature="0" />
  <path
     style="fill:#ffffff;fill-opacity:1;stroke:none;display:inline"
     d="m 646.25881,812.25439 0.11755,-142.45402 17.92371,-0.11715 0.11755,127.10763 51.31167,0.11753 0,15.22924 z"
     id="path3887"
     inkscape:connector-curvature="0"
     sodipodi:nodetypes="ccccccc" />
  <path
     style="fill:#ffffff;fill-opacity:1;stroke:none;display:inline"
     d="m 788.9971,667.87329 c -0.68807,-0.008 -1.38192,0 -2.0772,0.0113 -44.48515,0.7029 -72.66122,36.50846 -73.79941,73.61962 -1.13811,37.11112 32.83107,73.30922 74.68848,73.07037 41.85693,-0.23885 74.14847,-35.6696 74.14847,-72.78075 0,-36.53136 -29.60236,-73.44522 -72.96034,-73.91921 z m -2.97578,15.86834 c 33.14803,0.33325 57.65034,24.01168 57.22194,58.77986 -0.42841,34.7681 -28.10671,56.64688 -56.60284,56.49296 -28.49604,-0.15544 -55.45893,-28.41914 -55.81378,-55.78395 -0.35644,-27.36474 22.04632,-59.82224 55.19468,-59.48887 z m -9.95663,29.17023 0,21.5506 21.55079,0 0,-21.5506 -21.55079,0 z m -0.23889,38.65728 0,0.46936 21.56069,0 0,21.32104 0.23128,0 0,-21.7904 -21.79047,0 z m 21.56069,21.7904 -21.56069,0 0,0.23886 21.56069,0 0,-0.23886 z"
     id="path3889"
     inkscape:connector-curvature="0" />
  <path
     style="fill:#ffffff;fill-opacity:1;stroke:none;display:inline"
     d="m 878.72141,812.40642 0.29572,-142.57397 17.73223,0.0151 81.28109,114.16166 -0.25403,-114.12148 17.94987,-0.0189 0.038,142.5171 -19.91793,-0.0759 -79.13557,-110.6708 0.0761,110.70758 z"
     id="path3916"
     inkscape:connector-curvature="0"
     sodipodi:nodetypes="ccccccccccc" />
</svg>
