<?xml version="1.0" encoding="UTF-8" standalone="no"?>
<!-- Created with Inkscape (http://www.inkscape.org/) -->

<svg
   xmlns:dc="http://purl.org/dc/elements/1.1/"
   xmlns:cc="http://creativecommons.org/ns#"
   xmlns:rdf="http://www.w3.org/1999/02/22-rdf-syntax-ns#"
   xmlns:svg="http://www.w3.org/2000/svg"
   xmlns="http://www.w3.org/2000/svg"
   xmlns:sodipodi="http://sodipodi.sourceforge.net/DTD/sodipodi-0.dtd"
   xmlns:inkscape="http://www.inkscape.org/namespaces/inkscape"
   width="340"
   height="286"
   id="svg4011"
   version="1.1"
   inkscape:version="0.48.4 r9939"
   sodipodi:docname="logosimplonve.svg">
  <defs
     id="defs4013" />
  <sodipodi:namedview
     id="base"
     pagecolor="#ffffff"
     bordercolor="#666666"
     borderopacity="1.0"
     inkscape:pageopacity="0.0"
     inkscape:pageshadow="2"
     inkscape:zoom="0.49497475"
     inkscape:cx="375"
     inkscape:cy="358.37559"
     inkscape:document-units="px"
     inkscape:current-layer="layer1"
     showgrid="false"
     inkscape:window-width="934"
     inkscape:window-height="577"
     inkscape:window-x="6"
     inkscape:window-y="131"
     inkscape:window-maximized="0" />
  <metadata
     id="metadata4016">
    <rdf:RDF>
      <cc:Work
         rdf:about="">
        <dc:format>image/svg+xml</dc:format>
        <dc:type
           rdf:resource="http://purl.org/dc/dcmitype/StillImage" />
        <dc:title />
      </cc:Work>
    </rdf:RDF>
  </metadata>
  <g
     inkscape:label="Calque 1"
     inkscape:groupmode="layer"
     id="layer1"
     transform="translate(0,-766.36218)">
    <g
       id="g2998"
       transform="matrix(0.36761387,0,0,0.36761387,-25.198113,656.03973)">
      <g
         id="g4078"
         transform="matrix(0.22004054,0,0,0.22004054,52.066693,278.01407)">
        <path
           style="fill:#789c3c;fill-opacity:1;stroke:none;display:inline"
           d="M 2604,261.09375 358.625,867.28125 192.8125,2453.9688 2813.2188,3451.2812 4111.0312,2210.5625 2604,261.09375 z m -10.4062,32.5 1479.25,1914.46875 L 2806.625,3418.375 224,2435.9062 385.0625,889.46875 2593.5938,293.59375 z"
           id="path3050"
           inkscape:connector-curvature="0" />
        <g
           id="g3972">
          <rect
             y="1707.5874"
             x="2500.5266"
             height="69.285957"
             width="67.086403"
             id="rect3957"
             style="fill:#efc308;fill-opacity:1;stroke:none;display:inline" />
          <path
             transform="matrix(1.1177767,0,0,0.99277674,-282.57648,45.595351)"
             d="m 2662.1939,2262.6082 c 0,7.6936 -6.2369,13.9305 -13.9305,13.9305 -7.6936,0 -13.9305,-6.2369 -13.9305,-13.9305 0,-7.6937 6.2369,-13.9306 13.9305,-13.9306 7.6936,0 13.9305,6.2369 13.9305,13.9306 z"
             sodipodi:ry="13.930511"
             sodipodi:rx="13.930511"
             sodipodi:cy="2262.6082"
             sodipodi:cx="2648.2634"
             id="path3922"
             style="fill:#010101;fill-opacity:1;stroke:none;display:inline"
             sodipodi:type="arc" />
          <path
             sodipodi:nodetypes="cccccsccc"
             inkscape:connector-curvature="0"
             id="path3924"
             d="m 2656.8213,2068.985 104.9082,234.8067 33.0857,-0.3037 c 0,0 114.6696,-264.1007 120.8909,-280.1723 6.2213,-16.0717 24.752,-56.3186 73.1,-63.7681 -44.9291,0.6128 -92.0675,39.1292 -105.0285,69.1987 -12.961,30.0695 -105.8561,233.5387 -105.8561,233.5387 l -83.7411,-193.4833 z"
             style="fill:#789c3c;fill-opacity:1;stroke:none;display:inline" />
          <rect
             y="2067.7659"
             x="2918.7939"
             height="87.278275"
             width="35.222157"
             id="rect3926"
             style="fill:#efc308;fill-opacity:1;stroke:none;display:inline" />
          <path
             sodipodi:nodetypes="ccccccccccccc"
             inkscape:connector-curvature="0"
             id="path3928"
             d="m 2981.4959,2068.1472 186.7788,0.3666 0.1832,29.6939 -151.4026,-0.3665 -0.3666,71.1189 149.2031,-0.7332 -0.1833,29.8773 -149.7529,-0.1833 -0.3667,74.4182 156.535,-0.9164 0,30.2438 -190.9946,0.3666 z"
             style="fill:#075387;fill-opacity:1;stroke:none;display:inline" />
          <path
             sodipodi:nodetypes="czccccccccccc"
             inkscape:connector-curvature="0"
             id="path3876"
             d="m 655.8265,1778.0936 c 15.5532,111.4646 137.90265,157.8666 222.92916,100.0589 85.02651,-57.8077 54.95463,-154.4951 46.14116,-172.6405 -62.21279,-107.8355 -170.04829,-72.5815 -176.78802,-156.0504 -1.03688,-16.5901 8.81348,-44.5858 30.58796,-50.8071 25.922,-7.7766 54.95463,-6.7397 69.47095,44.0674 l 50.80711,-20.2192 c -17.10852,-54.4362 -75.17379,-93.8376 -142.57098,-69.471 -75.69222,35.7724 -68.9525,108.354 -59.10215,130.1285 43.03052,91.2454 123.3887,61.1759 173.67738,136.3497 20.73759,40.4383 17.62695,88.6532 -25.40356,119.7596 -28.5142,22.2929 -122.35182,35.2539 -135.31282,-80.3582 z"
             style="fill:#010101;fill-opacity:1;stroke:none;display:inline" />
          <rect
             y="1451.9543"
             x="1040.4381"
             height="446.41153"
             width="55.624058"
             id="rect3878"
             style="fill:#010101;fill-opacity:1;stroke:none;display:inline" />
          <path
             sodipodi:nodetypes="ccccccccccccc"
             inkscape:connector-curvature="0"
             id="path3880"
             d="m 1210.1017,1898.2198 0.063,-446.8323 60.9242,0 142.8487,188.1568 142.8487,-187.916 59.6466,0.3666 0.063,445.8583 -56.2952,-0.7332 0.6703,-363.7669 -147.1741,194.7555 -146.6925,-192.556 0.3666,362.7301 z"
             style="fill:#010101;fill-opacity:1;stroke:none;display:inline" />
          <path
             inkscape:connector-curvature="0"
             id="path3882"
             d="m 1851.2812,1451.5312 -122.8124,1.0938 -0.1563,445.5938 56.4375,0.1874 -0.1875,-146.8124 69.9375,-0.25 c 60.4775,-0.3201 139.0312,-61.8786 139.0312,-149.875 0,-86.8824 -78.2007,-149.6107 -142.25,-149.9376 z m -12.625,48.75 c 57.6459,1.1169 99.2135,46.5472 98.4063,106.3126 -0.086,65.2517 -63.6534,96.3675 -88.1563,96.4374 l -64.3437,0.1876 -0.3437,-202.1876 54.4374,-0.75 z"
             style="fill:#010101;fill-opacity:1;stroke:none;display:inline" />
          <path
             sodipodi:nodetypes="ccccccc"
             inkscape:connector-curvature="0"
             id="path3887"
             d="m 2094.7089,1897.6817 0.3666,-445.7763 56.0886,-0.3666 0.3666,397.7527 160.5675,0.3666 -10e-5,47.6571 z"
             style="fill:#010101;fill-opacity:1;stroke:none;display:inline" />
          <path
             inkscape:connector-curvature="0"
             id="path3889"
             d="m 2541.375,1445.875 c -2.1536,-0.024 -4.3249,0 -6.5,0.031 -139.2064,2.1996 -227.3758,114.2445 -230.9375,230.375 -3.5617,116.1307 102.7364,229.404 233.7187,228.6563 130.9825,-0.7476 232.0313,-111.6195 232.0313,-227.75 0,-114.3161 -92.6348,-229.8293 -228.3125,-231.3125 z m -9.3125,49.6562 c 103.7293,1.0433 180.4031,75.1388 179.0625,183.9376 -1.3406,108.7988 -87.9533,177.2628 -177.125,176.7812 -89.1717,-0.4815 -173.5456,-88.931 -174.6562,-174.5625 -1.1106,-85.6315 68.9894,-187.1995 172.7187,-186.1563 z m -31.1563,91.2813 0,67.4375 67.4376,0 0,-67.4375 -67.4376,0 z m -0.75,120.9687 0,1.4688 67.4688,0 0,66.7188 0.7188,0 0,-68.1876 -68.1876,0 z m 67.4688,68.1876 -67.4688,0 0,0.75 67.4688,0 0,-0.75 z"
             style="fill:#efc308;fill-opacity:1;stroke:none;display:inline" />
          <path
             sodipodi:nodetypes="ccccccccccc"
             inkscape:connector-curvature="0"
             id="path3916"
             d="m 2822.1462,1898.1569 0.9218,-446.1512 55.4884,0.052 254.3499,357.2419 -0.796,-357.1161 56.1694,-0.063 0.063,445.9733 -62.3278,-0.2408 -247.6364,-346.3178 0.2408,346.4328 z"
             style="fill:#010101;fill-opacity:1;stroke:none;display:inline" />
          <path
             id="path3822"
             d="M 2390.5312,212.5625 244.8125,1109.875 289.125,2705.2812 3018.375,3347.625 4140.9688,1946.9375 2390.5312,212.5625 z M 2383.5938,247.25 4102.125,1949.0312 3006.5312,3315.9062 317.125,2682.875 273.75,1128.5 2383.5938,247.25 z"
             style="fill:#075387;fill-opacity:1;stroke:none"
             inkscape:connector-curvature="0" />
        </g>
      </g>
    </g>
  </g>
</svg>
