<?xml version="1.0" encoding="UTF-8" standalone="no"?>
<!-- Created with Inkscape (http://www.inkscape.org/) -->

<svg
   xmlns:dc="http://purl.org/dc/elements/1.1/"
   xmlns:cc="http://creativecommons.org/ns#"
   xmlns:rdf="http://www.w3.org/1999/02/22-rdf-syntax-ns#"
   xmlns:svg="http://www.w3.org/2000/svg"
   xmlns="http://www.w3.org/2000/svg"
   xmlns:sodipodi="http://sodipodi.sourceforge.net/DTD/sodipodi-0.dtd"
   xmlns:inkscape="http://www.inkscape.org/namespaces/inkscape"
   width="200"
   height="62"
   id="svg4011"
   version="1.1"
   inkscape:version="0.48.4 r9939"
   sodipodi:docname="logosimploncoblanc.svg">
  <defs
     id="defs4013" />
  <sodipodi:namedview
     id="base"
     pagecolor="#ffffff"
     bordercolor="#666666"
     borderopacity="1.0"
     inkscape:pageopacity="0.0"
     inkscape:pageshadow="2"
     inkscape:zoom="3.959798"
     inkscape:cx="85.261002"
     inkscape:cy="37.776096"
     inkscape:document-units="px"
     inkscape:current-layer="layer1"
     showgrid="false"
     inkscape:window-width="1600"
     inkscape:window-height="876"
     inkscape:window-x="0"
     inkscape:window-y="24"
     inkscape:window-maximized="1"
     showguides="true"
     inkscape:guide-bbox="true" />
  <metadata
     id="metadata4016">
    <rdf:RDF>
      <cc:Work
         rdf:about="">
        <dc:format>image/svg+xml</dc:format>
        <dc:type
           rdf:resource="http://purl.org/dc/dcmitype/StillImage" />
        <dc:title></dc:title>
      </cc:Work>
    </rdf:RDF>
  </metadata>
  <g
     inkscape:label="Calque 1"
     inkscape:groupmode="layer"
     id="layer1"
     transform="translate(0,-990.36218)">
    <path
       style="fill:#888888;fill-opacity:1;stroke:none;display:inline"
       d="m 1.5352334,1028.6457 c 0.8490111,6.0846 7.5277657,8.6175 12.1691516,5.462 4.641388,-3.1556 2.999839,-8.4336 2.518733,-9.424 -3.396043,-5.8865 -9.2825165,-3.9621 -9.6504216,-8.5185 -0.056599,-0.9056 0.4811062,-2.4338 1.6697214,-2.7733 1.4150176,-0.4246 2.9998372,-0.368 3.7922472,2.4054 l 2.773434,-1.1038 c -0.933911,-2.9715 -4.10355,-5.1223 -7.782597,-3.7922 -4.1318513,1.9528 -3.7639465,5.9148 -3.2262403,7.1034 2.3489299,4.9809 6.7354843,3.3394 9.4806183,7.4431 1.132015,2.2074 0.962213,4.8392 -1.386716,6.5374 -1.556521,1.2169 -6.678884,1.9244 -7.3863932,-4.3867 z"
       id="path3876"
       inkscape:connector-curvature="0"
       sodipodi:nodetypes="czccccccccccc" />
    <rect
       style="fill:#888888;fill-opacity:1;stroke:none;display:inline"
       id="rect3878"
       width="3.0363801"
       height="24.368504"
       x="22.53023"
       y="1010.8425" />
    <path
       style="fill:#888888;fill-opacity:1;stroke:none;display:inline"
       d="m 31.791748,1035.203 0.0035,-24.3914 3.325701,0 7.797759,10.2711 7.797755,-10.258 3.255961,0.02 0.0034,24.3384 -3.073018,-0.04 0.03658,-19.8571 -8.033867,10.6311 -8.007583,-10.5112 0.02001,19.8007 z"
       id="path3880"
       inkscape:connector-curvature="0"
       sodipodi:nodetypes="ccccccccccccc" />
    <path
       style="fill:#888888;fill-opacity:1;stroke:none;display:inline"
       d="m 66.792152,1010.8195 -6.704024,0.059 -0.0085,24.3238 3.080778,0.01 -0.01026,-8.0141 3.817713,-0.013 c 3.301316,-0.017 7.589366,-3.3779 7.589366,-8.1814 0,-4.7427 -4.268783,-8.1668 -7.765073,-8.1847 z m -0.689171,2.6611 c 3.146752,0.06 5.415824,2.541 5.371757,5.8033 -0.0047,3.562 -3.474682,5.2604 -4.812228,5.2643 l -3.512364,0.01 -0.01876,-11.0369 2.971596,-0.041 z"
       id="path3882"
       inkscape:connector-curvature="0" />
    <path
       style="fill:#888888;fill-opacity:1;stroke:none;display:inline"
       d="m 80.080266,1035.1737 0.02004,-24.3339 3.061736,-0.02 0.02004,21.7124 8.764978,0.02 0,2.6015 z"
       id="path3887"
       inkscape:connector-curvature="0"
       sodipodi:nodetypes="ccccccc" />
    <path
       sodipodi:nodetypes="ccsssccsssssccccc"
       style="fill:#ff0008;fill-opacity:1;stroke:none;display:inline"
       d="m 104.46267,1010.5107 c -0.11755,0 -0.23609,0 -0.35481,0 -7.598944,0.1201 -12.411895,6.2363 -12.606322,12.5756 -0.194421,6.3393 5.608131,12.5226 12.758132,12.4818 7.15001,-0.041 12.66601,-6.0931 12.66601,-12.4323 0,-6.2403 -5.0567,-12.5459 -12.46301,-12.6269 z m -0.50835,2.7105 c 5.66232,0.057 9.84777,4.1017 9.77458,10.0408 -0.0731,5.9391 -4.80115,9.6763 -9.66881,9.6501 -4.867672,-0.026 -9.473434,-4.8546 -9.534053,-9.529 -0.0606,-4.6744 3.76596,-10.2188 9.428283,-10.1619 z m -1.70073,4.9829 0,3.6814 3.68124,0 0,-3.6814 z"
       id="path3889"
       inkscape:connector-curvature="0" />
    <path
       style="fill:#888888;fill-opacity:1;stroke:none;display:inline"
       d="m 119.78928,1035.1997 0.0503,-24.3544 3.02898,0 13.88433,19.501 -0.0434,-19.4941 3.06615,0 0.003,24.3446 -3.40233,-0.013 -13.51785,-18.9045 0.0131,18.9108 z"
       id="path3916"
       inkscape:connector-curvature="0"
       sodipodi:nodetypes="ccccccccccc" />
    <path
       style="fill:#ff0000;fill-opacity:1;stroke:none"
       d="m 102.23503,1028.6249 0,-3.6453 3.7357,0 0,3.6151 z"
       id="path3838"
       inkscape:connector-curvature="0" />
    <path
       style="fill:#888888;fill-opacity:1;stroke:none"
       d="m 186.27766,1010.8528 c -8.10689,0.2161 -12.0657,6.3442 -12.10929,12.8181 -0.0372,5.5295 5.3098,11.9963 12.28172,11.726 6.97191,-0.2702 11.98546,-5.4096 12.14759,-11.841 0.184,-7.2988 -6.10476,-12.6491 -12.32002,-12.7031 z m -20.96132,0.1723 c -0.30965,0.01 -0.61906,0.027 -0.91969,0.058 -5.94506,0.054 -11.6308,6.8568 -11.03631,13.4505 0.21618,3.4589 3.8934,10.5901 11.18959,10.8063 4.05344,-0.1621 5.36669,-0.6557 7.20425,-1.6286 0.0541,-1.7836 0,-3.2808 0,-4.2536 -0.4864,1.0269 -3.68837,2.5763 -6.55281,2.4142 -2.86443,-0.1621 -7.6724,-2.0428 -8.10477,-8.2581 -0.32427,-5.2965 4.98149,-9.0888 7.08928,-9.1969 2.10779,-0.1081 4.32013,-0.052 7.77906,2.7591 -0.0811,-1.081 0.003,-3.5073 0.0575,-4.426 -2.17534,-1.2059 -4.5385,-1.765 -6.70609,-1.7245 z m 21.01879,3.3914 c 4.26962,-0.1621 8.657,3.7402 8.60295,8.9288 -0.0444,4.2748 -3.73883,8.8642 -8.60295,8.756 -4.432,-0.099 -8.59609,-4.1696 -8.488,-8.277 0.1081,-4.1076 2.32677,-9.0835 8.488,-9.4078 z m -41.29032,14.0062 -0.0575,5.135 5.19243,0 0,-5.135 -5.13494,0 z"
       id="path2987"
       inkscape:connector-curvature="0" />
  </g>
</svg>
