<?xml version="1.0" encoding="UTF-8" standalone="no"?>
<!-- Created with Inkscape (http://www.inkscape.org/) -->

<svg
   xmlns:dc="http://purl.org/dc/elements/1.1/"
   xmlns:cc="http://creativecommons.org/ns#"
   xmlns:rdf="http://www.w3.org/1999/02/22-rdf-syntax-ns#"
   xmlns:svg="http://www.w3.org/2000/svg"
   xmlns="http://www.w3.org/2000/svg"
   xmlns:sodipodi="http://sodipodi.sourceforge.net/DTD/sodipodi-0.dtd"
   xmlns:inkscape="http://www.inkscape.org/namespaces/inkscape"
   id="svg2"
   version="1.1"
   inkscape:version="0.48.4 r9939"
   width="154"
   height="42"
   sodipodi:docname="rhone_alpes.svg">
  <metadata
     id="metadata8">
    <rdf:RDF>
      <cc:Work
         rdf:about="">
        <dc:format>image/svg+xml</dc:format>
        <dc:type
           rdf:resource="http://purl.org/dc/dcmitype/StillImage" />
        <dc:title></dc:title>
      </cc:Work>
    </rdf:RDF>
  </metadata>
  <defs
     id="defs6" />
  <sodipodi:namedview
     pagecolor="#ffffff"
     bordercolor="#666666"
     borderopacity="1"
     objecttolerance="10"
     gridtolerance="10"
     guidetolerance="10"
     inkscape:pageopacity="0"
     inkscape:pageshadow="2"
     inkscape:window-width="1511"
     inkscape:window-height="656"
     id="namedview4"
     showgrid="false"
     inkscape:zoom="5.4755555"
     inkscape:cx="88.030031"
     inkscape:cy="42.882885"
     inkscape:window-x="0"
     inkscape:window-y="24"
     inkscape:window-maximized="0"
     inkscape:current-layer="svg2" />
  <g
     id="g3844"
     transform="matrix(0.33015493,0,0,0.33015493,3.0136011,27.483035)">
    <path
       sodipodi:nodetypes="ccccccczccccccczccc"
       inkscape:connector-curvature="0"
       id="path2987"
       d="m 13.148839,-47.486309 c 1.302892,0 3.994068,-0.548357 8.83148,0.347457 4.837408,0.895822 8.547363,5.785708 8.726529,11.518935 0.179166,5.733228 -4.57503,10.085621 -9.233277,11.339767 2.752974,0.177298 4.974963,1.854975 6.408268,4.721586 1.433312,2.866618 3.168736,8.045889 5.796574,15.154677 -1.806229,0.0143 -6.026348,-0.139425 -8.883959,-0.04162 -0.387198,-1.485782 -4.135836,-17.540266 -7.51772,-17.465791 -3.38188,0.07448 -4.464485,-0.20431 -5.582936,0.01272 -0.358325,2.687449 -2.1807027,12.754018 -2.9606967,17.470334 -1.1600612,-0.0345 -7.26062,0.101224 -8.34646799,-0.06335 1.63793619,-5.612132 6.86441579,-22.64061 7.88318959,-26.533455 0.385336,0.03444 5.3640291,0.168292 5.3640291,0.168292 -0.17016,1.000768 -0.410802,2.584367 -0.432536,3.299154 1.435172,0.08135 3.31902,0.2099 5.912387,-0.06334 2.149961,-0.71665 3.635743,-3.793168 3.709956,-6.744865 0.07421,-2.951691 -0.519479,-6.598302 -4.281912,-7.494116 -3.762433,-0.895822 -5.340431,-0.275114 -6.647048,-0.03074 0.530346,-1.972666 0.953884,-3.814911 1.25414,-5.595674 z"
       style="fill:#3f2a56;fill-opacity:1;stroke:#3f2a56;stroke-width:0.5;stroke-linecap:butt;stroke-linejoin:miter;stroke-miterlimit:4;stroke-opacity:1;stroke-dasharray:none" />
    <path
       sodipodi:nodetypes="ccccccccccccc"
       inkscape:connector-curvature="0"
       id="path3776"
       d="m 39.754613,-50.58006 0,46.224147 7.3457,0 c 0,0 -0.0499,-14.835849 -0.179202,-16.841354 0.139223,-3.438816 4.120793,-9.406078 7.883183,-8.868587 3.76245,0.53749 5.285333,2.866611 5.195762,6.001971 -0.08957,3.135358 0,20.066294 0,20.066294 l 7.43527,0 0,-21.4996 c 0.05111,-7.082404 -5.619336,-9.762103 -11.197721,-9.495661 -3.583248,0.358331 -7.883183,3.135359 -9.047722,5.285321 0,1.702053 0.08957,-20.872531 0.08957,-20.872531 z"
       style="fill:#3f2a56;fill-opacity:1;stroke:#3f2a56;stroke-width:0.5;stroke-linecap:butt;stroke-linejoin:miter;stroke-miterlimit:4;stroke-opacity:1;stroke-dasharray:none" />
    <path
       sodipodi:nodetypes="cccccccc"
       inkscape:connector-curvature="0"
       id="path3778"
       d="m 86.068317,-49.863409 8.86858,0 3.762451,8.868589 -5.374903,0 -2.777053,-5.822807 -3.135335,5.912389 -5.285333,0 z"
       style="fill:#3f2a56;fill-opacity:1;stroke:#3f2a56;stroke-width:0.5;stroke-linecap:butt;stroke-linejoin:miter;stroke-miterlimit:4;stroke-opacity:1;stroke-dasharray:none" />
    <path
       inkscape:connector-curvature="0"
       id="path3780"
       d="m 90.625,-35.4375 c -9.137293,0 -16.375,6.354357 -16.375,16.65625 1.16454,11.824782 8.870996,15.15625 16.84375,15.15625 8.59987,0.179165 15.402,-6.362671 15.3125,-15.5 -0.0896,-11.735199 -8.166777,-15.95417 -15.78125,-16.3125 z M 90,-31.15625 c 5.464474,0.179166 8.710452,4.508458 8.53125,11.40625 -0.179142,6.897785 -2.687597,12.081243 -8.0625,11.8125 C 85.093847,-8.206247 82.49582,-12.318864 82.40625,-18.5 82.293313,-26.293303 85.341782,-31.335415 90,-31.15625 z"
       style="fill:#3f2a56;fill-opacity:1;stroke:#3f2a56;stroke-width:0.5;stroke-linecap:butt;stroke-linejoin:miter;stroke-miterlimit:4;stroke-opacity:1;stroke-dasharray:none" />
    <path
       sodipodi:nodetypes="ccccccccccccc"
       inkscape:connector-curvature="0"
       id="path3784"
       d="m 112.67406,-34.634519 0,30.278606 7.70405,0 c 0,0 -0.0895,-13.526835 -0.0895,-17.110102 0,-3.583267 2.86662,-8.599839 7.52485,-8.689422 3.85201,-0.08958 5.19576,2.149961 5.28531,5.643646 0.0896,3.493684 0,20.155878 0,20.155878 l 7.52485,0 c 0,0 0,-18.005917 0,-20.962111 0,-2.9562 -3.04576,-10.21231 -10.30189,-9.764403 -6.27073,0.358325 -7.52483,2.508286 -10.03312,4.92699 -0.0895,-2.32912 0,-4.479082 0,-4.479082 z"
       style="fill:#3f2a56;fill-opacity:1;stroke:#3f2a56;stroke-width:0.5;stroke-linecap:butt;stroke-linejoin:miter;stroke-miterlimit:4;stroke-opacity:1;stroke-dasharray:none" />
    <path
       sodipodi:nodetypes="cccccccccccc"
       inkscape:connector-curvature="0"
       id="path3786"
       d="m 169.02094,-28.184641 c -1.79159,-2.329121 -5.10613,-2.329121 -6.80821,-2.418704 -2.95619,-0.08958 -6.80822,3.493684 -7.1665,8.59984 1.25411,-0.08958 11.91434,0 11.91434,0 l -1.34374,4.74783 c 0,0 -9.04772,0 -10.66024,0.08958 -0.62705,3.135359 3.1354,9.406071 7.88325,9.585237 -0.35834,1.881212 -0.71669,2.866617 -1.16459,4.389504 -6.09154,-0.268747 -14.15393,-4.479087 -14.06429,-15.587213 0.0895,-9.853984 6.53944,-16.124704 13.07888,-16.303863 6.53945,-0.179165 9.13736,1.702048 9.94355,2.508286 -0.2687,1.164564 -1.26932,3.939237 -1.61245,4.3895 z"
       style="fill:#3f2a56;fill-opacity:1;stroke:#3f2a56;stroke-width:0.5;stroke-linecap:butt;stroke-linejoin:miter;stroke-miterlimit:4;stroke-opacity:1;stroke-dasharray:none" />
    <path
       inkscape:connector-curvature="0"
       id="path3788"
       d="m 177.71038,-50.58006 3.67282,0 17.8268,45.955398 -8.68945,0 -5.01655,-12.272688 -13.07896,0 1.34375,-4.92699 10.12269,0 -8.24147,-21.678766 z"
       style="fill:#3f2a56;fill-opacity:1;stroke:#3f2a56;stroke-width:0.5;stroke-linecap:butt;stroke-linejoin:miter;stroke-miterlimit:4;stroke-opacity:1;stroke-dasharray:none" />
    <path
       inkscape:connector-curvature="0"
       id="path3792"
       d="m 204.31612,-50.58006 7.97277,0 0,46.134564 -7.61442,0 z"
       style="fill:#3f2a56;fill-opacity:1;stroke:#3f2a56;stroke-width:0.5;stroke-linecap:butt;stroke-linejoin:miter;stroke-miterlimit:4;stroke-opacity:1;stroke-dasharray:none" />
    <path
       inkscape:connector-curvature="0"
       id="path3794"
       d="m 238.5,-35.5 c -5.70093,0.126689 -7.97103,2.450148 -10.65625,5.3125 -0.12669,-1.266877 -0.12669,-3.167247 0,-4.6875 l -7.59375,0 0,43.71875 7.96875,0 -0.125,-17 c 2.6604,2.66044 5.46545,4.84375 10.40625,4.84375 6.71446,-0.760128 12.03464,-6.092182 11.78125,-15.59375 C 250.02787,-28.407819 246.22797,-35.246623 238.5,-35.5 z m 32.3125,0.625 c -9.24816,-0.126682 -14.72045,6.585425 -14.59375,16.59375 0.12668,10.008325 7.61748,15.21875 15.21875,15.21875 5.96898,-0.103311 7.94164,-1.267567 11.28125,-2.9375 0,-0.696781 0.0286,-3.713034 0,-5.0625 -1.35902,0.614191 -4.06089,2.78125 -8.875,2.78125 -4.81418,0 -9.93328,-1.815965 -10.25,-8.59375 1.96368,0.06334 19.69594,-0.25 21.40625,-0.25 0.12668,-3.040501 -1.51874,-17.876682 -14.1875,-17.75 z m -0.25,4.0625 c 5.82763,-0.126688 7.72741,5.604782 7.34375,9 -2.09037,-0.06334 -14.1875,0.25 -14.1875,0.25 -0.12669,-3.0405 1.01612,-8.553218 6.84375,-9.25 z m -35.21875,1.25 c 4.56074,-0.126689 7.21875,4.837058 7.21875,10.03125 0,5.194192 -1.89789,10.75 -7.21875,10.75 -5.32094,0 -7.12163,-4.297371 -7.375,-10.125 0.12669,-4.940814 2.8142,-10.529561 7.375,-10.65625 z"
       style="fill:#3f2a56;fill-opacity:1;stroke:#3f2a56;stroke-width:0.5;stroke-linecap:butt;stroke-linejoin:miter;stroke-miterlimit:4;stroke-opacity:1;stroke-dasharray:none" />
    <path
       sodipodi:nodetypes="ccccc"
       inkscape:connector-curvature="0"
       id="path3802"
       d="m 302.78995,-3.581061 c -4.30735,0.633439 -11.40186,-0.253372 -13.55557,-1.773625 0.44341,-2.153692 1.01351,-3.800628 1.45692,-4.877471 2.34374,1.393559 9.77664,2.266538 14.12568,1.076843 -0.44342,1.393565 -1.20355,3.800628 -2.02703,5.574253 z"
       style="fill:#3f2a56;fill-opacity:1;stroke:#3f2a56;stroke-width:0.5;stroke-linecap:butt;stroke-linejoin:miter;stroke-miterlimit:4;stroke-opacity:1;stroke-dasharray:none" />
    <path
       sodipodi:nodetypes="czzcccccc"
       inkscape:connector-curvature="0"
       id="path3804"
       d="m 306.52728,-15.046289 c -7.72796,-2.217034 -16.91284,-3.895546 -16.53277,-10.958477 0.38007,-7.062931 5.32093,-8.678103 10.00836,-8.804793 4.68743,-0.126683 10.00828,0.506754 12.41538,1.583598 -0.38008,0.760126 -1.1402,3.103845 -1.90034,4.940814 -2.78617,-1.499795 -7.47458,-2.977155 -10.83177,-2.027001 -2.91384,0.696781 -2.72381,2.850472 -2.66046,4.814131 0.0633,1.963658 6.71445,3.927315 11.21183,4.877475 -0.31672,0.950154 -1.07679,4.370722 -1.71023,5.574253 z"
       style="fill:#3f2a56;fill-opacity:1;stroke:#3f2a56;stroke-width:0.5;stroke-linecap:butt;stroke-linejoin:miter;stroke-miterlimit:4;stroke-opacity:1;stroke-dasharray:none" />
    <path
       inkscape:connector-curvature="0"
       id="path2987-9"
       d="m 392.09375,-80.25 c -0.87414,-0.01698 -1.73209,-0.0054 -2.59375,0.03125 -33.25902,0.284653 -63.39523,26.484382 -61.5625,64.53125 1.60182,33.252486 31.93618,58.74458 64.53125,57.5 21.24103,-0.81104 55.16801,-17.72579 57.3125,-59.25 1.87132,-36.235298 -30.58922,-62.286101 -57.6875,-62.8125 z m -2.8125,6.96875 c 24.55808,-0.428001 43.39517,17.527467 50.34375,36.28125 6.48893,21.599597 2.04832,39.82039 -12.125,54.75 -0.60087,-1.56349 -25,-64.03125 -25,-64.03125 l -5.0625,0 -3.1875,10.46875 12,31.71875 -14.78125,0.0625 -2.375,7.3125 20.03125,0.09375 7.125,18.5625 6.40625,0.0937 c 0,0 -13.3611,11.88906 -32.3125,12.375 -18.95138,0.48593 -49.45356,-12.43184 -54.75,-48.1875 -0.48593,-29.398948 11.82908,-41.344681 24.0625,-50.1875 -0.43711,1.723095 -0.80759,2.625451 -1.15625,4.25 3.77461,-0.480047 15.71667,-2.963095 15.90625,9.125 0.21348,12.06495 -5.12202,12.376297 -13.71875,12.0625 0.54281,-2.38798 0.75,-5.28125 0.75,-5.28125 l -7.78125,0 -12.125,39.84375 12.875,-0.25 L 359.25,-30 c 0,0 4.56752,-1.145209 8.65625,0.78125 4.50976,2.124834 10.03125,24.875 10.03125,24.875 l 13.21875,0 c 0,0 -7.1289,-17.84847 -8.34375,-21.25 -1.21482,-3.401528 -3.41064,-7.809956 -10.21875,-8.40625 5.47604,-0.548186 12.14128,-6.624001 13.6875,-13.46875 1.65964,-7.346835 -1.84533,-20.00332 -18.84375,-20.71875 7.6354,-3.389283 14.96749,-4.97391 21.84375,-5.09375 z"
       style="fill:#3f2a56;fill-opacity:1;stroke:#3f2a56;stroke-width:0.5;stroke-linecap:butt;stroke-linejoin:miter;stroke-miterlimit:4;stroke-opacity:1;stroke-dasharray:none" />
    <path
       inkscape:connector-curvature="0"
       id="path3026"
       d="m 236.21875,-51.375 -1.34375,2.34375 1.71875,0 2.15625,-2.34375 -2.53125,0 z m -15.96875,0.46875 0.0312,11.15625 2.46875,0 0,-4.5625 c 1.4899,-0.145369 2.08782,0.122716 3.28125,4.59375 0.57656,-0.03036 2.32371,0.0061 2.71875,0 -0.30005,-1.559788 -1.6825,-4.773499 -2.5625,-5.5625 1.09243,-0.576591 1.78397,-0.928293 1.875,-2.71875 0.091,-1.790431 -1.76302,-2.90625 -3.25,-2.90625 -1.18346,2.4e-5 -4.5625,0 -4.5625,0 z m 3.3125,1.875 c 0.29885,-0.0039 0.58581,0 0.84375,0 0.74347,0.01517 1.25085,0.773499 1.28125,1.5625 0.0303,0.789017 -1.01265,1.15894 -1.4375,1.25 -0.42485,0.09103 -1.625,0.03125 -1.625,0.03125 l 0,-2.78125 c 0.32196,-0.02997 0.63865,-0.05861 0.9375,-0.0625 z m 23.65625,0.78125 c -1.91184,0.09106 -3.53737,3.048962 -3.21875,5.21875 0.40969,2.382193 1.91293,3.436595 3.1875,3.40625 1.27454,-0.03036 2.37066,-0.706495 2.75,-1.34375 0.0758,1.471793 -0.27351,2.24746 -1.0625,2.6875 -1.32626,0.739621 -2.65845,0.139972 -3.78125,-0.40625 -0.0456,0.455167 -0.0483,1.29572 -0.0937,1.78125 0.53104,0.303469 1.35773,0.690218 2.875,0.78125 1.48699,-0.06073 4.25272,-0.623615 4.34375,-4.25 0.0686,-2.731001 0,-7.71875 0,-7.71875 l -2.3125,0 0.0312,1.03125 c -0.54625,-0.849691 -1.5362,-1.243816 -2.71875,-1.1875 z m -10.75,0.0625 c -2.91324,0.06067 -4.24545,2.437348 -4.09375,4.53125 0.15176,2.093901 1.47222,4.003625 3.6875,4.125 2.21529,0.121402 3.07604,-0.3555 3.53125,-0.75 0,-0.40967 -0.0644,-1.174336 -0.125,-1.78125 -0.7131,0.424846 -2.05926,0.841936 -3,0.78125 -0.94073,-0.06067 -1.87766,-0.720936 -1.96875,-1.84375 0.45522,0.0151 4.59229,-0.04825 5.59375,-0.09375 0.13655,-1.729748 -0.22619,-4.983919 -3.625,-4.96875 z m -0.3125,1.6875 c 1.36558,-0.121377 1.8125,0.899405 1.8125,1.71875 -0.51589,0 -2.9662,-0.01615 -3.40625,-0.03125 -0.0805,-0.620148 0.22809,-1.566124 1.59375,-1.6875 z m 12.25,0.0625 c 0.94067,0.03035 1.65264,1.201439 1.53125,2.71875 -0.10934,1.366615 -0.96457,2.12589 -1.875,2.15625 -0.91037,0.03035 -1.7821,-1.067402 -1.8125,-2.28125 -0.0304,-1.213869 0.82096,-2.56339 2.15625,-2.59375 z"
       style="fill:#3f2a56;fill-opacity:1;stroke:#3f2a56;stroke-width:0.5;stroke-linecap:butt;stroke-linejoin:miter;stroke-miterlimit:4;stroke-opacity:1;stroke-dasharray:none" />
    <path
       inkscape:connector-curvature="0"
       id="path3040"
       d="m 257.11189,-51.580335 2.27595,0 0,2.184956 -2.24559,0 z"
       style="fill:#3f2a56;fill-opacity:1;stroke:#3f2a56;stroke-width:0.5;stroke-linecap:butt;stroke-linejoin:miter;stroke-miterlimit:4;stroke-opacity:1;stroke-dasharray:none" />
    <path
       inkscape:connector-curvature="0"
       id="path3042"
       d="m 257.08152,-48.029787 2.27596,0 0,8.375605 -2.1242,0 z"
       style="fill:#3f2a56;fill-opacity:1;stroke:#3f2a56;stroke-width:0.5;stroke-linecap:butt;stroke-linejoin:miter;stroke-miterlimit:4;stroke-opacity:1;stroke-dasharray:none" />
    <path
       inkscape:connector-curvature="0"
       id="path3044"
       d="m 268.25,-48.1875 c -2.16977,-0.06067 -4.32878,1.507446 -4.40625,4.125 -0.0707,2.390617 1.27243,4.380433 4.125,4.5625 2.85256,0.182087 4.58832,-2.065062 4.40625,-4.25 0.12134,-3.201541 -2.19801,-4.407155 -4.125,-4.4375 z m 0,1.78125 c 1.35038,-0.01515 1.87775,1.320099 1.96875,2.625 0.091,1.304903 -0.82374,2.49911 -2.25,2.46875 -1.4263,-0.03034 -1.8109,-1.768069 -1.75,-2.375 0.0152,-1.56285 0.57464,-2.68839 2.03125,-2.71875 z"
       style="fill:#3f2a56;fill-opacity:1;stroke:#3f2a56;stroke-width:0.5;stroke-linecap:butt;stroke-linejoin:miter;stroke-miterlimit:4;stroke-opacity:1;stroke-dasharray:none" />
    <path
       sodipodi:nodetypes="ccccccccccccc"
       inkscape:connector-curvature="0"
       id="path3048"
       d="m 276.89774,-48.060133 2.18493,0 c 0,0 -0.0194,0.534984 0,1.001413 0.55056,-0.701874 1.4111,-1.046953 2.5339,-1.137983 1.74491,-0.09106 2.89807,1.441453 2.86777,2.564261 -0.0304,1.122834 0,5.796174 0,5.796174 l -2.18499,0 c 0,0 -0.0256,-5.170292 0,-5.492705 -0.23275,-0.868639 -0.91037,-1.229021 -1.60832,-1.077299 -1.06212,0.273124 -1.42631,1.107639 -1.48697,2.260818 -0.0609,1.153161 -0.0609,4.430562 -0.0609,4.430562 l -2.27602,0 z"
       style="fill:#3f2a56;fill-opacity:1;stroke:#3f2a56;stroke-width:0.5;stroke-linecap:butt;stroke-linejoin:miter;stroke-miterlimit:4;stroke-opacity:1;stroke-dasharray:none" />
  </g>
</svg>
