<?xml version="1.0" encoding="UTF-8" standalone="no"?>
<!-- Created with Inkscape (http://www.inkscape.org/) -->

<svg
   xmlns:dc="http://purl.org/dc/elements/1.1/"
   xmlns:cc="http://creativecommons.org/ns#"
   xmlns:rdf="http://www.w3.org/1999/02/22-rdf-syntax-ns#"
   xmlns:svg="http://www.w3.org/2000/svg"
   xmlns="http://www.w3.org/2000/svg"
   xmlns:sodipodi="http://sodipodi.sourceforge.net/DTD/sodipodi-0.dtd"
   xmlns:inkscape="http://www.inkscape.org/namespaces/inkscape"
   id="svg2"
   sodipodi:version="0.32"
   inkscape:version="0.48.4 r9939"
   width="281"
   height="90"
   version="1.0"
   sodipodi:docname="logo_conseil_ardeche2.svg"
   inkscape:output_extension="org.inkscape.output.svg.inkscape">
  <metadata
     id="metadata7">
    <rdf:RDF>
      <cc:Work
         rdf:about="">
        <dc:format>image/svg+xml</dc:format>
        <dc:type
           rdf:resource="http://purl.org/dc/dcmitype/StillImage" />
        <dc:title>Logo du Conseil Général de L'Ardèche</dc:title>
        <dc:date>10 septembre 2008</dc:date>
        <dc:creator>
          <cc:Agent>
            <dc:title>Binnette (vectorisation uniquement)</dc:title>
          </cc:Agent>
        </dc:creator>
        <dc:rights>
          <cc:Agent>
            <dc:title>Marque Déposée</dc:title>
          </cc:Agent>
        </dc:rights>
        <dc:publisher>
          <cc:Agent>
            <dc:title>Le Conseil Général de l'Ardèche</dc:title>
          </cc:Agent>
        </dc:publisher>
        <dc:source>http://www.inforoutes-ardeche.fr/portail_images/sivu/CG07_logo_Q.jpg</dc:source>
        <dc:language>Français</dc:language>
        <dc:subject>
          <rdf:Bag>
            <rdf:li>Ardèche</rdf:li>
          </rdf:Bag>
        </dc:subject>
      </cc:Work>
    </rdf:RDF>
  </metadata>
  <defs
     id="defs5">
    <inkscape:perspective
       sodipodi:type="inkscape:persp3d"
       inkscape:vp_x="0 : 526.18109 : 1"
       inkscape:vp_y="0 : 1000 : 0"
       inkscape:vp_z="744.09448 : 526.18109 : 1"
       inkscape:persp3d-origin="372.04724 : 350.78739 : 1"
       id="perspective9" />
  </defs>
  <sodipodi:namedview
     inkscape:window-height="876"
     inkscape:window-width="1555"
     inkscape:pageshadow="2"
     inkscape:pageopacity="0.0"
     guidetolerance="10.0"
     gridtolerance="10.0"
     objecttolerance="10.0"
     borderopacity="1.0"
     bordercolor="#666666"
     pagecolor="#ffffff"
     id="base"
     showgrid="false"
     showguides="true"
     inkscape:guide-bbox="true"
     inkscape:zoom="2"
     inkscape:cx="87.893588"
     inkscape:cy="15.394016"
     inkscape:window-x="45"
     inkscape:window-y="24"
     inkscape:current-layer="svg2"
     inkscape:window-maximized="1">
    <sodipodi:guide
       orientation="1,0"
       position="168.15842,31.155008"
       id="guide3164" />
    <sodipodi:guide
       orientation="0,1"
       position="570.42166,82.948981"
       id="guide3269" />
  </sodipodi:namedview>
  <g
     id="g3002"
     transform="matrix(0.27912768,0,0,0.27912768,-0.17477573,68.953843)">
    <path
       inkscape:connector-curvature="0"
       id="path2384"
       d="M 29.717502,-41.06024 C 20.972029,-43.192 13.183586,-50.22065 9.9295753,-58.91777 c -1.8190835,-4.86194 -2.026387,-7.32209 -1.7468049,-20.72999 0.3544254,-16.99716 1.0775452,-19.07396 7.8883146,-22.65527 3.055371,-1.6066 5.607702,-1.75947 23.428915,-1.40328 18.554973,0.37086 20.536477,0.59145 27.425152,3.05303 12.388043,4.42671 13.03577,3.99879 13.061193,-8.62884 0.0152,-7.55178 -1.786585,-13.00542 -4.835945,-14.63739 C 73.861353,-124.60939 64.250577,-125 48.565741,-125 L 24,-125 l 0,-8.04545 c 0,-7.20876 0.255265,-8.30072 2.454545,-10.5 L 28.909091,-146 l 26.295454,0.01 c 25.572584,0.01 26.432907,0.0749 31.295455,2.37763 5.90098,2.79455 10.82281,7.44216 13.83023,13.05969 2.07503,3.87595 2.18296,5.4412 2.47197,35.84901 0.30151,31.72241 0.29666,31.80815 -2.09016,37 -3.258826,7.08864 -6.575145,10.75788 -12.879321,14.24995 L 82.5,-40.5 58,-40.31912 c -13.475,0.0995 -26.202124,-0.23402 -28.282498,-0.74112 z m 46.987159,-23.18731 c 2.569885,-2.57229 2.746584,-3.30583 2.770158,-11.5 L 79.5,-84.5 55.75,-84.7681 32,-85.0362 l 0,8.58384 c 0,14.84893 1.111349,15.53186 24.729841,15.19679 L 73.959683,-61.5 76.704661,-64.24755 z M 135,-50.46247 l 0,-10.46248 9.25,-0.28752 9.25,-0.28753 0.26405,-31.75 0.26404,-31.75 -9.51404,0 -9.51405,0 0,-11.02361 0,-11.02362 17.22568,0.27362 17.22568,0.27361 3.91484,5.25 c 2.15316,2.8875 4.7115,5.25 5.68519,5.25 0.97369,0 5.97296,-2.02283 11.10948,-4.49518 10.55362,-5.07975 16.66822,-6.50482 27.91052,-6.50482 13.79669,0 15.85065,1.77658 15.89681,13.75 L 234,-125 l -24.98422,0 -24.98423,0 -3.26577,2.91702 -3.26578,2.91703 0,28.83297 0,28.83298 9.25,0.28753 9.25,0.28752 0,10.46248 0,10.46247 -30.5,0 -30.5,0 0,-10.46247 z m 138.32418,9.02298 c -5.84267,-1.82689 -10.65811,-4.99847 -13.75607,-9.0601 C 254.28213,-57.42986 254,-59.63229 254,-93.966 l 0,-31.71456 3.00416,-5.90972 c 5.69551,-11.20408 15.89131,-15.93009 32.8829,-15.24209 9.17734,0.3716 10.12311,0.63055 20.87159,5.71447 6.19226,2.92888 11.92976,5.06771 12.75,4.75295 1.23322,-0.47323 1.49135,-3.26053 1.49135,-16.10366 L 325,-168 l -9.5,0 -9.5,0 0,-10.5 0,-10.5 17.45295,0 c 11.40154,0 18.36208,0.41423 20.07499,1.19469 5.54853,2.52807 5.47206,1.59524 5.47206,66.75565 L 349,-61 l 9.5,0 9.5,0 0,10.5 0,10.5 -17.75,-0.018 -17.75,-0.018 -3.25769,-4.98204 c -4.08723,-6.25067 -5.89329,-6.3681 -16.77347,-1.09064 -4.41243,2.14026 -9.8105,4.38775 -11.99572,4.99442 -5.36156,1.4885 -21.98517,1.28931 -27.14894,-0.3253 z m 45.66191,-21.31206 c 5.71454,-2.86613 5.98286,-4.22808 5.99917,-30.4514 0.0159,-25.62037 -0.37097,-27.91091 -5.13029,-30.37205 -3.49345,-1.80653 -33.41857,-2.03659 -37.25973,-0.28644 -4.98308,2.27044 -5.59524,5.61045 -5.59524,30.52817 0,32.33238 -0.11661,32.17876 24.5,32.27527 11.41036,0.0447 14.64484,-0.26853 17.48609,-1.69355 z M 415,-41.3905 c -7.67022,-1.70541 -13.03235,-4.73709 -19.08652,-10.79126 -6.78591,-6.78591 -10.10144,-14.06664 -10.70771,-23.51354 L 384.73699,-83 l 15.6315,0 C 415.94417,-83 416,-82.992 416,-80.7344 c 0,3.68605 3.40577,8.94646 7.06166,10.90713 C 426.08765,-68.20441 429.1274,-68 450.2344,-68 l 23.7656,0 0,14 0,14 -26.75,-0.0838 c -17.11143,-0.0536 -28.73176,-0.52444 -32.25,-1.30669 z m 112.69027,0.29327 c -7.67862,-1.80659 -14.2777,-6.93005 -18.31969,-14.22324 L 506.5,-60.5 l 0,-33 0,-33 2.69466,-4.58364 c 3.58842,-6.10392 9.40551,-11.21218 15.40175,-13.52499 C 529.05554,-146.32857 532.53646,-146.5 563,-146.5 l 33.5,0 0.27548,15.76812 c 0.17696,10.12876 -0.12006,16.50721 -0.83049,17.83466 C 594.24085,-109.713 588.84957,-108 580.53212,-108 l -7.53212,0 0,-8.5 0,-8.5 -18.57692,0 -18.57693,0 -2.92307,2.92308 -2.92308,2.92307 0,25.56115 0,25.56115 2.91765,3.26577 2.91765,3.26578 12.75189,0.35749 c 7.85543,0.22023 14.24105,-0.0887 16.63017,-0.80447 4.84524,-1.45166 7.77371,-5.89507 7.7789,-11.80302 L 573,-78 l 12,0 12,0 0,3.66809 c 0,16.86299 -7.7639,28.80857 -21.34515,32.84177 -5.69006,1.68977 -41.21556,1.98078 -47.96458,0.39291 z M 622,-50.46247 l 0,-10.46248 9.25,-0.28752 9.25,-0.28753 0,-53 0,-53 -9.25,-0.28753 -9.25,-0.28752 0,-10.46248 0,-10.46247 18.07692,0 18.07693,0 2.92307,2.92308 2.92308,2.92307 0,23.10831 c 0,19.9978 0.20966,23.18876 1.55756,23.706 0.86862,0.33332 6.50829,-1.78162 12.75,-4.78138 L 689.5,-146.5 l 12,0 c 9.23425,0 13.00674,0.41236 16.36802,1.78912 9.50645,3.89381 14.94409,10.4416 17.03271,20.5101 0.65169,3.14157 1.09927,17.08692 1.09927,34.25 L 736,-61 l 9.5,0 9.5,0 0,10.5 0,10.5 -28,0 -28,0 0,-10.5 0,-10.5 6.5,0 6.5,0 0,-27.9349 c 0,-15.36715 -0.43057,-29.06738 -0.95704,-30.4521 -1.79781,-4.7286 -5.41329,-5.613 -22.94625,-5.613 -9.83686,0 -16.96541,0.43868 -18.50147,1.13856 -5.1373,2.34071 -5.59524,5.22678 -5.59524,35.26257 L 664,-61 l 6.5,0 6.5,0 0,10.5 0,10.5 -27.5,0 -27.5,0 0,-10.46247 z m 174.5,9.34456 c -5.45414,-1.23227 -13.30264,-7.393 -16.96839,-13.31946 L 776.5,-59.3386 l -0.29007,-32.52816 -0.29006,-32.52817 3.04684,-6.18901 c 3.2118,-6.52409 7.09607,-10.18069 14.27694,-13.44015 3.83982,-1.74292 6.71501,-1.93414 29.38062,-1.95395 28.04862,-0.0245 30.52253,0.39913 37.97074,6.50238 2.51867,2.06386 5.42418,5.85079 7.0869,9.23681 2.60601,5.30697 2.84445,6.78818 3.16837,19.68247 0.39722,15.81243 -0.41303,19.80423 -4.89134,24.09791 l -3.0857,2.95847 -20.68662,0.2969 c -20.62553,0.29602 -20.71583,0.28788 -30.57752,-2.75551 -7.51186,-2.31822 -10.21779,-2.78111 -11.25,-1.92446 -0.94986,0.78832 -1.3591,3.68028 -1.3591,9.60439 0,9.58121 1.65071,14.34287 5.59524,16.14012 C 806.24169,-61.38839 815.26495,-61 831.04705,-61 L 855,-61 l 0,6.95295 c 0,7.9996 -1.21234,11.36714 -4.65732,12.93678 -2.96108,1.34916 -47.86554,1.34278 -53.84268,-0.008 z m 50.5,-69.45901 c 0,-8.14643 -0.14672,-8.72364 -2.92308,-11.5 L 841.15385,-125 l -18.02116,0 c -17.60686,0 -18.08567,0.0555 -20.82693,2.41275 -2.62909,2.26082 -2.82777,2.98495 -3.15526,11.5 L 798.801,-102 l 24.0995,0 24.0995,0 0,-8.57692 z m -462,5.54368 c 0,-2.34369 5.10275,-10.74768 8.9074,-14.67007 2.24242,-2.31183 6.09931,-5.3884 8.57087,-6.83682 8.31677,-4.87396 12.72264,-5.43515 42.77173,-5.448 L 473,-132 l 0,14 0,14 -44,0 c -29.61044,0 -44,-0.33791 -44,-1.03324 z m 7.0864,-58.71676 c 3.60919,-9.57212 12.4582,-18.7152 21.71197,-22.43349 5.3713,-2.15826 7.28038,-2.30962 32.95163,-2.61253 l 27.25,-0.32154 0,14.05878 0,14.05878 -41.47525,0 -41.47525,0 1.0369,-2.75 z"
       style="fill:#001b68;fill-opacity:1" />
    <path
       inkscape:connector-curvature="0"
       sodipodi:nodetypes="ccccc"
       id="path3158"
       d="m 423.2884,-241.63143 0.16353,21.42198 47.91327,-0.24529 c -3.23051,-9.71522 -12.72133,-18.93642 -24.12016,-21.01316 l -23.95664,-0.16353 z"
       style="fill:#f9bb18;fill-opacity:1;fill-rule:evenodd;stroke:#f9bb18;stroke-width:1px;stroke-linecap:butt;stroke-linejoin:miter;stroke-opacity:1" />
    <path
       inkscape:connector-curvature="0"
       sodipodi:nodetypes="ccccccc"
       id="path3166"
       d="m 168.15842,44.07594 -33.12062,0 0,-50.02492 c 2.90794,-2.15152 5.01271,-1.49195 6.87965,0 l 0,43.93151 26.24097,0 c 1.5725,2.29322 1.57249,4.32435 0,6.09341 z"
       style="fill:#3b8ad7;fill-opacity:1;fill-rule:evenodd;stroke:#3b8ad7;stroke-width:1px;stroke-linecap:butt;stroke-linejoin:miter;stroke-opacity:1" />
    <path
       inkscape:connector-curvature="0"
       sodipodi:nodetypes="ccccccccccccc"
       id="path3172"
       d="m 211.89337,-6.93179 -34.00515,0 0,50.71289 35.38108,0 c 1.60053,-2.1911 1.27456,-4.03193 0,-5.70029 l -29.38596,0 0,-16.21633 26.14269,0 c 1.44147,-1.96562 1.44143,-3.93123 0,-5.89685 l -26.14269,0 0,-16.80601 28.20659,0 c 0.74438,-1.86916 1.60524,-3.71502 -0.19656,-6.09341 z"
       style="fill:#3b8ad7;fill-opacity:1;fill-rule:evenodd;stroke:#3b8ad7;stroke-width:1px;stroke-linecap:butt;stroke-linejoin:miter;stroke-opacity:1" />
    <path
       inkscape:connector-curvature="0"
       sodipodi:nodetypes="ccccccccccccc"
       id="path3174"
       d="m 502.1654,-6.93179 -34.00515,0 0,50.71289 35.38108,0 c 1.60053,-2.1911 1.27456,-4.03193 0,-5.70029 l -29.38596,0 0,-16.21633 26.14269,0 c 1.44147,-1.96562 1.44143,-3.93123 0,-5.89685 l -26.14269,0 0,-16.80601 28.20659,0 c 0.74438,-1.86916 1.60524,-3.71502 -0.19656,-6.09341 z"
       style="fill:#3b8ad7;fill-opacity:1;fill-rule:evenodd;stroke:#3b8ad7;stroke-width:1px;stroke-linecap:butt;stroke-linejoin:miter;stroke-opacity:1" />
    <path
       inkscape:connector-curvature="0"
       sodipodi:nodetypes="ccccccccccccc"
       id="path3178"
       d="m 728.01465,-6.93179 -34.00515,0 0,50.71289 35.38108,0 c 1.60053,-2.1911 1.27456,-4.03193 0,-5.70029 l -29.38596,0 0,-16.21633 26.14269,0 c 1.44147,-1.96562 1.44143,-3.93123 0,-5.89685 l -26.14269,0 0,-16.80601 28.20659,0 c 0.74438,-1.86916 1.60524,-3.71502 -0.19656,-6.09341 z"
       style="fill:#3b8ad7;fill-opacity:1;fill-rule:evenodd;stroke:#3b8ad7;stroke-width:1px;stroke-linecap:butt;stroke-linejoin:miter;stroke-opacity:1" />
    <path
       inkscape:connector-curvature="0"
       sodipodi:nodetypes="ccccccccccccc"
       id="path3180"
       d="m 837.00803,-6.93179 -34.00515,0 0,50.71289 35.38108,0 c 1.60053,-2.1911 1.27456,-4.03193 0,-5.70029 l -29.38596,0 0,-16.21633 26.14269,0 c 1.44147,-1.96562 1.44143,-3.93123 0,-5.89685 l -26.14269,0 0,-16.80601 28.20659,0 c 0.74438,-1.86916 1.60524,-3.71502 -0.19656,-6.09341 z"
       style="fill:#3b8ad7;fill-opacity:1;fill-rule:evenodd;stroke:#3b8ad7;stroke-width:1px;stroke-linecap:butt;stroke-linejoin:miter;stroke-opacity:1" />
    <path
       inkscape:connector-curvature="0"
       sodipodi:nodetypes="ccccccc"
       id="path3182"
       d="m 595.13927,44.07594 -33.12062,0 0,-50.02492 c 2.90794,-2.15152 5.01271,-1.49195 6.87965,0 l 0,43.93151 26.24097,0 c 1.5725,2.29322 1.57249,4.32435 0,6.09341 z"
       style="fill:#3b8ad7;fill-opacity:1;fill-rule:evenodd;stroke:#3b8ad7;stroke-width:1px;stroke-linecap:butt;stroke-linejoin:miter;stroke-opacity:1" />
    <path
       inkscape:connector-curvature="0"
       sodipodi:nodetypes="ccccccccccccc"
       id="path3184"
       d="m 282.06585,-6.93179 -22.0149,0 c -4.03221,1.26826 -6.90714,4.00942 -8.05902,8.94355 l 0,32.03954 c -0.047,2.46194 3.61989,10.05332 7.96074,9.92636 l 23.09598,0 c 3.10633,-2.44541 1.49947,-5.26052 0,-5.99513 l -18.77162,0.29484 c -3.01164,0.25886 -6.32852,-3.77547 -6.19169,-5.70028 l 0,-27.6169 c 0.78575,-2.70458 1.78648,-5.2528 5.40544,-5.89685 l 18.57522,0 c 2.41572,-0.88553 2.90957,-4.66647 -1.5e-4,-5.99513 z"
       style="fill:#3b8ad7;fill-opacity:1;fill-rule:evenodd;stroke:#3b8ad7;stroke-width:1px;stroke-linecap:butt;stroke-linejoin:miter;stroke-opacity:1" />
    <path
       inkscape:connector-curvature="0"
       id="path3190"
       d="M 309,-7.03125 C 302.84531,-5.06422 301.51543,-1.49262 299.9375,2 l 0,32.84375 c 1.23384,4.05584 3.34003,7.32766 7.1875,9.03125 l 23.875,0 c 5.70016,-2.18878 6.86252,-6.03041 7.21875,-8.9375 l -0.1875,-32.96875 c -0.82611,-4.71187 -3.21077,-8.20638 -9,-9 l -20.03125,0 z m 1.96875,6.1875 16.90625,0.0937 c 2.843,0.8965 4.05947,2.35776 4.3125,4.03125 l -0.0937,29.59375 c 0.0242,1.99411 -2.30966,4.41005 -4.90625,5.09375 l -15.15625,0 c -2.53917,0.10382 -4.62738,-1.62266 -5.09375,-4.90625 l 0,-29.875 c 0.64114,-1.74433 1.57569,-3.32373 4.03125,-4.03125 z"
       style="fill:#3b8ad7;fill-opacity:1;fill-rule:evenodd;stroke:#3b8ad7;stroke-width:1px;stroke-linecap:butt;stroke-linejoin:miter;stroke-opacity:1" />
    <path
       inkscape:connector-curvature="0"
       sodipodi:nodetypes="cccccccccccccc"
       id="path3245"
       d="m 356.9558,42.2086 0,-47.86274 c 2.08008,-1.59852 4.27908,-2.30521 6.87966,0 l 23.09598,26.04441 2.0639,0 0,-26.33925 c 2.29322,-1.17225 4.58643,-1.69048 6.87965,0 l 0,48.15758 c -0.6635,1.12855 -3.918,3.82735 -6.87965,0 l 0,-9.82808 -22.9977,-26.14268 -2.0639,0 0,35.97116 c -1.4808,2.30537 -5.10263,3.02361 -6.97794,-4e-4 z"
       style="fill:#3b8ad7;fill-opacity:1;fill-rule:evenodd;stroke:#3b8ad7;stroke-width:1px;stroke-linecap:butt;stroke-linejoin:miter;stroke-opacity:1" />
    <path
       inkscape:connector-curvature="0"
       sodipodi:nodetypes="ccccccccccccccccccccc"
       id="path3247"
       d="m 445.015,-7.03007 -23.39044,0 c -4.636,1.29616 -7.46865,4.25696 -8.69785,8.69785 l 0,12.62908 c 1.21237,4.67606 4.08493,6.03171 7.10079,7.10079 l 19.779,0 c 2.41424,0.70469 3.99251,2.03637 4.31207,4.31207 l 0,7.65361 c -0.34766,2.46022 -1.60121,4.19573 -4.56391,4.56392 l -25.39944,0 c -1.65212,2.36926 -1.75431,4.50006 0,6.34525 l 28.89455,0 c 4.22804,-1.27634 6.27672,-4.00559 7.37106,-7.37106 l 0,-15.62664 c -1.64671,-3.90109 -3.60963,-4.32393 -5.50373,-5.50373 l -21.52349,0 c -3.68864,-0.7568 -3.25025,-2.54536 -4.02951,-4.02951 l 0,-8.45215 c 0.67248,-2.43885 2.06658,-3.43446 3.78381,-3.78381 l 21.86709,0 c 1.45815,-1.81402 2.65831,-3.69254 0,-6.53567 z"
       style="fill:#3b8ad7;fill-opacity:1;fill-rule:evenodd;stroke:#445000;stroke-width:1px;stroke-linecap:butt;stroke-linejoin:miter;stroke-opacity:0" />
    <path
       inkscape:connector-curvature="0"
       sodipodi:nodetypes="ccccccccccccc"
       id="path3249"
       d="m 520.986,-6.73523 21.03252,0 c 1.44793,1.26172 1.93021,3.53063 0,6.09341 l -7.1745,0 0,38.82082 7.07622,0 c 0.90839,1.75166 2.35616,3.33736 0,6.0935 l -21.42522,0 c -2.25825,-2.33144 -1.65059,-4.28327 0,-6.09341 l 7.56763,-9e-5 0,-38.82082 -7.07665,-1.8e-4 c -1.73591,-2.60971 -1.40157,-4.52934 0,-6.09323 z"
       style="fill:#3b8ad7;fill-opacity:1;fill-rule:evenodd;stroke:#520000;stroke-width:1px;stroke-linecap:butt;stroke-linejoin:miter;stroke-opacity:0" />
    <path
       inkscape:connector-curvature="0"
       sodipodi:nodetypes="cccccccccccccccccccccccc"
       id="path3251"
       d="m 671.946,-6.73523 -26.0447,0 c -6.54375,1.47017 -8.06649,5.45085 -9.48409,9.4841 l 0,32.9732 c 1.59657,4.34951 4.10457,7.62187 8.575,8.575 l 10.34405,0 c 3.20897,-1.20783 6.60023,-2.34274 8.55043,-4.05408 l 5.1106,0 0,16.21633 c -0.60754,5.1023 -2.77042,4.91646 -4.6192,5.79856 l -9.33667,0 c -1.10415,1.84307 -1.5036,3.82707 0,6.19169 l 11.99025,0 c 3.67073,-0.75783 8.29594,-4.73438 8.55043,-9.53324 l 0,-41.67105 c -1.99547,-1.39626 -4.07114,-2.23114 -6.58481,0 l 0,14.93868 c -1.31809,4.08263 -3.33671,5.53825 -5.70029,5.70029 l -14.44727,0 c -3.58077,-0.0229 -4.35228,-2.85498 -5.40545,-5.40544 l 0,-28.69799 c 0.63959,-1.92819 1.42829,-3.74455 4.1278,-4.1278 l 24.37392,0 c 1.58173,-1.43741 2.5612,-3.13831 0,-6.38825 z"
       style="opacity:0.90447759;fill:#3b8ad7;fill-opacity:1;fill-rule:evenodd;stroke:#671000;stroke-width:1px;stroke-linecap:butt;stroke-linejoin:miter;stroke-opacity:0" />
    <path
       inkscape:connector-curvature="0"
       sodipodi:nodetypes="cccccccccccccc"
       id="path3255"
       d="m 745.16489,42.2086 0,-47.86274 c 2.08008,-1.59852 4.27908,-2.30521 6.87966,0 l 23.09598,26.04441 2.0639,0 0,-26.33925 c 2.29322,-1.17225 4.58643,-1.69048 6.87965,0 l 0,48.15758 c -0.6635,1.12855 -3.918,3.82735 -6.87965,0 l 0,-9.82808 -22.9977,-26.14268 -2.0639,0 0,35.97116 c -1.4808,2.30537 -5.10263,3.02361 -6.97794,-4e-4 z"
       style="fill:#3b8ad7;fill-opacity:1;fill-rule:evenodd;stroke:#3b8ad7;stroke-width:1px;stroke-linecap:butt;stroke-linejoin:miter;stroke-opacity:1" />
    <path
       inkscape:connector-curvature="0"
       id="path3257"
       d="m 856.53125,-7.3125 c -0.6572,0.0701 -1.47379,0.50611 -2.5625,1.5625 l 0,48.25 c 2.72284,2.14809 4.93693,1.77572 6.875,0 l 0,-19.9375 15.625,0 10.40625,21.03125 c 2.84235,1.0183 4.47171,-0.10152 5.21875,-2.75 l -8.875,-18 0,-2.09375 c 3.21544,-1.12746 4.9346,-3.36936 6.0625,-6.0625 l 0,-14.59375 c -0.77862,-3.07812 -3.12725,-5.54463 -7.3125,-7.3125 l -8.75,0 c -5.10852,1.35497 -7.45123,5.9951 -11,4.71875 l -3.25,-3.25 c -0.70507,-0.77523 -1.34216,-1.67932 -2.4375,-1.5625 z m 8.15625,6.90625 14.59375,0 c 1.99726,0.37808 3.08989,1.83604 3.78125,3.78125 l 0,7.875 c -0.13104,1.96562 -1.4477,3.28228 -3.9375,3.9375 l -18.1875,0 0,-11.8125 c 0.65969,-1.20807 -0.051,-2.33153 3.75,-3.78125 z"
       style="fill:#3b8ad7;fill-opacity:1;fill-rule:evenodd;stroke:#860000;stroke-width:1px;stroke-linecap:butt;stroke-linejoin:miter;stroke-opacity:0" />
    <path
       inkscape:connector-curvature="0"
       id="path3262"
       d="m 925.65625,-7.3125 c -1.07043,0.0541 -2.12706,0.27094 -3.09375,0.6875 -4.11482,3.62254 -12.97427,33.47283 -19.375,46.96875 -0.0499,4.56889 5.49352,4.47376 5.71875,2.34375 1.94305,-4.54131 3.70292,-8.37566 5.90625,-13.4375 l 23.28125,0 6,13.65625 c 1.33261,3.14357 5.90395,0.27841 5.59375,-2.375 -7.31421,-15.16935 -9.85994,-28.40992 -19.15625,-47.15625 -1.28709,-0.43996 -3.09094,-0.77762 -4.875,-0.6875 z m 0.6875,8.15625 c 0.33899,-0.025 0.70583,0.0929 1.125,0.46875 l 7.6875,20.34375 -17.125,0 7.375,-20.34375 c 0.28877,-0.27605 0.59851,-0.44379 0.9375,-0.46875 z"
       style="fill:#3b8ad7;fill-opacity:1;fill-rule:evenodd;stroke:#860000;stroke-width:1px;stroke-linecap:butt;stroke-linejoin:miter;stroke-opacity:0" />
    <path
       inkscape:connector-curvature="0"
       sodipodi:nodetypes="ccccccc"
       id="path3271"
       d="m 997.20596,44.07594 -33.12062,0 0,-50.02492 c 2.90794,-2.15152 5.01271,-1.49195 6.87965,0 l 0,43.93151 26.24097,0 c 1.5725,2.29322 1.57249,4.32435 0,6.09341 z"
       style="fill:#3b8ad7;fill-opacity:1;fill-rule:evenodd;stroke:#3b8ad7;stroke-width:1px;stroke-linecap:butt;stroke-linejoin:miter;stroke-opacity:1" />
  </g>
</svg>
