<?xml version="1.0" encoding="UTF-8" standalone="no"?>
<!-- Created with Inkscape (http://www.inkscape.org/) -->

<svg
   xmlns:dc="http://purl.org/dc/elements/1.1/"
   xmlns:cc="http://creativecommons.org/ns#"
   xmlns:rdf="http://www.w3.org/1999/02/22-rdf-syntax-ns#"
   xmlns:svg="http://www.w3.org/2000/svg"
   xmlns="http://www.w3.org/2000/svg"
   xmlns:sodipodi="http://sodipodi.sourceforge.net/DTD/sodipodi-0.dtd"
   xmlns:inkscape="http://www.inkscape.org/namespaces/inkscape"
   id="svg2"
   version="1.1"
   inkscape:version="0.48.4 r9939"
   width="350"
   height="120"
   sodipodi:docname="logofestivalpetit.svg">
  <metadata
     id="metadata8">
    <rdf:RDF>
      <cc:Work
         rdf:about="">
        <dc:format>image/svg+xml</dc:format>
        <dc:type
           rdf:resource="http://purl.org/dc/dcmitype/StillImage" />
        <dc:title></dc:title>
      </cc:Work>
    </rdf:RDF>
  </metadata>
  <defs
     id="defs6" />
  <sodipodi:namedview
     pagecolor="#ffffff"
     bordercolor="#666666"
     borderopacity="1"
     objecttolerance="10"
     gridtolerance="10"
     guidetolerance="10"
     inkscape:pageopacity="0"
     inkscape:pageshadow="2"
     inkscape:window-width="1551"
     inkscape:window-height="800"
     id="namedview4"
     showgrid="false"
     showguides="true"
     inkscape:guide-bbox="true"
     inkscape:zoom="1.8503753"
     inkscape:cx="195.01643"
     inkscape:cy="92.643448"
     inkscape:window-x="0"
     inkscape:window-y="24"
     inkscape:window-maximized="0"
     inkscape:current-layer="g3776"
     inkscape:snap-midpoints="false"
     inkscape:snap-global="false">
    <sodipodi:guide
       orientation="0,1"
       position="375.22346,147.2194"
       id="guide2989" />
    <sodipodi:guide
       orientation="1,0"
       position="379.47528,199.83572"
       id="guide2993" />
    <sodipodi:guide
       orientation="1,0"
       position="307.19428,214.71711"
       id="guide2995" />
    <sodipodi:guide
       orientation="0,1"
       position="201.96164,166.35261"
       id="guide2997" />
    <sodipodi:guide
       orientation="0,1"
       position="237.57066,40.392327"
       id="guide2999" />
    <sodipodi:guide
       orientation="1,0"
       position="148.28236,126.49176"
       id="guide3001" />
    <sodipodi:guide
       orientation="1,0"
       position="275.3056,120.11403"
       id="guide3003" />
    <sodipodi:guide
       orientation="0,1"
       position="230.12997,58.462579"
       id="guide3007" />
    <sodipodi:guide
       orientation="1,0"
       position="165.82113,117.45664"
       id="guide3009" />
    <sodipodi:guide
       orientation="1,0"
       position="256.70387,121.70846"
       id="guide3011" />
    <sodipodi:guide
       orientation="0,1"
       position="334.29965,276.36855"
       id="guide3013" />
    <sodipodi:guide
       orientation="1,0"
       position="250.32613,225.34667"
       id="guide3015" />
    <sodipodi:guide
       orientation="1,0"
       position="358.21616,210.99676"
       id="guide3017" />
    <sodipodi:guide
       orientation="0,1"
       position="495.86896,238.10214"
       id="guide3019" />
    <sodipodi:guide
       orientation="0,1"
       position="526.69469,184.42286"
       id="guide3021" />
    <sodipodi:guide
       orientation="0,1"
       position="485.50514,134.19819"
       id="guide3025" />
    <sodipodi:guide
       orientation="0,1"
       position="498.79209,121.17698"
       id="guide3027" />
    <sodipodi:guide
       orientation="0,1"
       position="485.50514,61.385708"
       id="guide3029" />
    <sodipodi:guide
       orientation="0,1"
       position="486.83384,21.790597"
       id="guide3031" />
    <sodipodi:guide
       orientation="1,0"
       position="178.3422,151.86109"
       id="guide3809" />
  </sodipodi:namedview>
  <g
     inkscape:groupmode="layer"
     id="layer1"
     inkscape:label="1"
     style="display:inline"
     transform="translate(0,-174)" />
  <g
     inkscape:groupmode="layer"
     id="layer2"
     inkscape:label="2"
     transform="translate(0,-174)">
    <g
       id="g3776"
       transform="translate(-96.299876,-345.4567)">
      <g
         id="g3784"
         transform="matrix(0.42019249,0,0,0.42019249,110.11337,372.25134)"
         style="opacity:0.15">
        <rect
           y="12.965736"
           x="-45.634586"
           height="265.52606"
           width="698.11127"
           id="rect3861"
           style="fill:#ffffff;fill-opacity:1;stroke:#000000;stroke-width:4.5021534;stroke-miterlimit:4;stroke-opacity:1;stroke-dasharray:none;display:inline"
           transform="translate(96.299876,345.4567)" />
        <g
           id="g3005"
           transform="translate(-87.128454,362.27096)">
          <g
             id="g3780">
            <path
               style="fill:#000000;fill-opacity:1;stroke:#000000;stroke-width:1px;stroke-linecap:butt;stroke-linejoin:miter;stroke-opacity:1;display:inline"
               d="m -0.875,0 0,313.90625 928.15625,0 L 927.28125,0 -0.875,0 z m 305.28125,14.9375 c 40.50052,0 73.34375,32.843234 73.34375,73.34375 0,40.50052 -32.84323,73.3125 -73.34375,73.3125 -40.50052,0 -73.34375,-32.81198 -73.34375,-73.3125 0,-40.500516 32.84323,-73.34375 73.34375,-73.34375 z m -0.0312,17.53125 c -30.38006,0 -55,24.619938 -55,55 0,30.38006 24.61994,55 55,55 30.38006,0 55,-24.61994 55,-55 0,-30.380062 -24.61994,-55 -55,-55 z M 282.5,47.4375 l 43.84375,0 0,14.625 -27.625,0 0,19.40625 25.78125,0 0,13.53125 -24.96875,0 0,29.78125 -17.03125,0 0,-77.34375 z m 103.78125,24.46875 31.34375,0 0,10.03125 -19.46875,0 0,11.625 17.84375,0 0,9.3125 -18.375,0 0,14.0625 19.84375,0 0,8.625 -31.1875,0 0,-53.65625 z m 57.9375,0 c 11.61926,0 15.40625,4.21875 15.40625,4.21875 l -3.78125,8.375 c -9.3736,-5.80508 -18.48511,-3.571695 -18.90625,1.90625 -0.27022,10.403295 24.9646,7.414535 23.5,25.25 -1.30939,15.94526 -21.46902,19.47321 -35.25,12.3125 l 0.125,-11.09375 c 6.21495,3.91812 20.15263,7.4236 23.125,1.34375 2.97237,-6.07985 -4.6122,-9.30425 -8.125,-10.25 -3.5128,-0.94575 -15.79961,-6.076489 -14.71875,-16.75 0.96886,-9.567475 7.00573,-15.3125 18.625,-15.3125 z m 69.0625,0 11.625,0 0,53.65625 -11.625,0 0,-53.65625 z m 29.4375,0 12.96875,42.875 12.84375,-42.875 11.21875,0 -17.84375,53.65625 -12.4375,0 -18.09375,-53.34375 11.34375,-0.3125 z m 56.21875,0 13.78125,0 19.3125,53.65625 -13.09375,0 -3.25,-12.15625 -19.3125,-0.25 -3.9375,12.40625 -12.28125,0 18.78125,-53.65625 z m 39.3125,0 11.0625,0 0,44.75 22.4375,0 0,8.90625 -33.375,0 -0.125,-53.65625 z m -173.8125,0.5625 40.46875,0 0,9.46875 -14.46875,0 0,43.625 -11.21875,0 0,-43.5 -14.78125,0 0,-9.59375 z m 141.125,9.46875 -6.375,21.625 13.125,0.25 -6.75,-21.875 z M 376.78125,137.875 c 2.003,0 3.625,1.622 3.625,3.625 0,2.003 -1.622,3.625 -3.625,3.625 -2.003,0 -3.625,-1.622 -3.625,-3.625 0,-2.003 1.622,-3.625 3.625,-3.625 z m 207.6875,0.3125 c 2.003,0 3.625,1.622 3.625,3.625 0,2.003 -1.622,3.625 -3.625,3.625 -2.003,0 -3.65625,-1.622 -3.65625,-3.625 0,-2.003 1.65325,-3.625 3.65625,-3.625 z M 689,138.40625 l 8.96875,0 0,37.40625 -8.96875,0 0,-37.40625 z m -476.4375,5.25 c 34.78297,0 62.96875,28.18578 62.96875,62.96875 0,34.78297 -28.18578,62.96875 -62.96875,62.96875 -34.78297,0 -63,-28.18578 -63,-62.96875 0,-34.78297 28.21703,-62.96875 63,-62.96875 z m 212,0 5.21875,0 0,4.375 7.03125,0 0,6.46875 -7.15625,0 0,13.90625 c 0,1.48614 1.67007,2.375 3.15625,2.375 1.48619,0 4.02805,-0.68842 4.90625,-1.09375 l 0,5.03125 c -1.41864,1.08086 -3.68893,1.92739 -6.59375,2.0625 -4.45855,-0.1351 -8.63604,-0.96462 -8.90625,-6.0625 l -0.28125,-16.875 -3.375,0 0.0625,-2.53125 c 5.43421,-1.94032 5.32951,-4.58133 5.9375,-7.65625 z M 561.625,144 l 5.1875,0 0,4.40625 7.03125,0 0,6.4375 -7.15625,0 0,13.9375 c 0,1.48614 1.70132,2.34375 3.1875,2.34375 1.48619,0 3.9968,-0.65717 4.875,-1.0625 l 0,5.03125 c -1.41864,1.08087 -3.65768,1.92739 -6.5625,2.0625 -4.45855,-0.1351 -8.66729,-0.99586 -8.9375,-6.09375 l -0.25,-16.84375 -3.375,0 0.0625,-2.53125 c 5.43421,-1.94032 5.32951,-4.61258 5.9375,-7.6875 z m -188.46875,4.03125 7.71875,0 0,27.78125 -7.71875,0 0,-27.78125 z m 30.46875,0 c 4.45856,0 9.47473,3.6816 9.8125,7.9375 l -0.15625,19.84375 -7.15625,0 0,-16.71875 c -0.13511,-2.81773 -0.93574,-4.875 -4.71875,-4.875 -3.78302,0 -5.8175,3.51288 -5.75,4.59375 l -0.1875,17 -7.4375,0 0.125,-26.90625 5.46875,0.0625 c 0.20265,0.97201 0.6843,2.69946 1.5625,3.375 2.36439,-2.49949 3.97895,-4.3125 8.4375,-4.3125 z m 50.34375,0 c 9.59265,0 12.89016,7.28025 12.6875,15.40625 l -17.5625,0 c -0.33777,3.78303 2.44264,7.7238 6.96875,7.65625 3.3777,0 6.13057,-0.87778 8.5625,-2.09375 l 0.21875,6.03125 c -2.02662,0.77443 -2.82961,1.80744 -8.03125,1.875 -6.21496,0.0675 -15.69255,-3.26836 -15.625,-14.125 0.20266,-8.89758 5.55299,-14.75 12.78125,-14.75 z m 35.9375,0 0.0625,7.125 c -5.98174,-0.0845 -8.9968,1.82497 -9.875,5 -0.0184,-0.0254 -0.0625,15.65625 -0.0625,15.65625 l -7.28125,0 0,-27.4375 5.65625,0 0.75,5.59375 c 3.21543,-5.29661 6.93619,-5.9821 10.75,-5.9375 z m 21.6875,0 c 3.10748,0 8.87258,3.23604 9.125,7.46875 l 0,20.3125 -7.59375,0 0,-17.59375 c 0,-2.97237 -2.71181,-4.125 -4.3125,-4.125 -0.93194,0 -5.8136,0.72732 -5.875,4.03125 l 0,17.6875 -7.28125,0 0.0312,-27.21875 5.65625,0.1875 c 0,0 0.62916,2.44519 0.78125,3.28125 2.4927,-2.98537 5.74029,-4.03125 9.46875,-4.03125 z m 95.53125,0 c 8.90038,-0.20266 13.63129,6.90544 13.75,14.75 -0.28661,7.6419 -5.68018,13.49495 -13.71875,13.5625 -7.7008,0.20266 -13.82383,-5.42944 -13.875,-13.5625 0.28661,-8.60594 5.61892,-14.75 13.84375,-14.75 z m 63.40625,0 c 3.98568,0 11.43539,3.04585 11.46875,9.875 l 0.0937,18.15625 -5.8125,0 -1.78125,-3.65625 c -2.16173,2.02661 -4.63014,3.78125 -9.15625,3.78125 -4.52611,0 -8.38646,-2.09204 -8.40625,-7.5625 0.17124,-7.66778 5.37293,-9.0219 8.59375,-9.75 2.45653,-0.68035 7.40152,-0.33178 8.3125,-0.4375 0.0512,-2.30303 -0.37645,-5.43245 -4.34375,-5.5 -2.43872,-0.0676 -4.16141,0.68128 -7.125,2.25 l -2.25,-4.53125 c 4.16996,-2.57698 6.42057,-2.625 10.40625,-2.625 z m -89.71875,0.3125 7.71875,0 0,27.75 -7.71875,0 0,-27.75 z m -40.90625,0.0625 c 3.98568,0 11.43539,3.0771 11.46875,9.90625 l 0.0625,18.15625 -5.8125,0 -1.78125,-3.65625 c -2.16173,2.02661 -4.63014,3.78125 -9.15625,3.78125 -4.52611,0 -8.35521,-2.12329 -8.375,-7.59375 0.17124,-7.66778 5.37293,-8.99065 8.59375,-9.71875 2.45653,-0.68035 7.40152,-0.36303 8.3125,-0.46875 0.0512,-2.30303 -0.37645,-5.43245 -4.34375,-5.5 -2.43872,-0.0676 -4.16141,0.68128 -7.125,2.25 l -2.25,-4.53125 c 4.16996,-2.57698 6.42057,-2.625 10.40625,-2.625 z m 102.4375,0.1875 c 3.10748,0 8.87258,3.26729 9.125,7.5 l 0,20.28125 -7.5625,0 0,-17.59375 c 0,-2.97237 -2.71181,-4.125 -4.3125,-4.125 -0.93194,0 -5.8136,0.75857 -5.875,4.0625 l 0,17.65625 -7.3125,0 0.0625,-27.1875 5.625,0.15625 c 0,0 0.66041,2.44519 0.8125,3.28125 2.4927,-2.98537 5.70904,-4.03125 9.4375,-4.03125 z m -188.03125,4.6875 c -2.70215,0.1351 -5.35386,2.01339 -5.21875,5.59375 l 10.53125,-0.0625 c -0.27022,-2.56704 -2.00236,-5.39614 -5.3125,-5.53125 z m 152.53125,1 c -4.42742,-0.0955 -5.99045,4.57249 -5.84375,8.5 -0.19107,4.87326 2.11072,7.96875 6.21875,7.96875 4.10803,0 5.70745,-4.06432 5.65625,-7.96875 0.0164,-3.49911 -1.14933,-8.5676 -6.03125,-8.5 z m -395.40625,7.75 c -24.81738,0 -44.9375,20.12012 -44.9375,44.9375 0,24.81738 20.12012,44.9375 44.9375,44.9375 24.81738,0 44.9375,-20.12012 44.9375,-44.9375 0,-24.81738 -20.12012,-44.9375 -44.9375,-44.9375 z M 671.5,162.3125 c -4.72709,0.27305 -7.61036,3.40713 -6.375,7.0625 0.74309,1.21597 2.50741,2.49031 5.75,0.53125 2.38276,-1.57692 2.95266,-4.20158 2.75,-7.53125 -0.74369,-0.0836 -1.4497,-0.10151 -2.125,-0.0625 z m -129.59375,0.375 c -5.33371,-0.15464 -8.72985,3.14603 -7.40625,7.0625 0.74309,1.21597 2.47616,2.52156 5.71875,0.5625 2.38276,-1.57692 2.98391,-4.20158 2.78125,-7.53125 -0.37185,-0.0418 -0.73817,-0.0834 -1.09375,-0.0937 z M 211.5,170.53125 c 0.64652,-0.002 1.30521,0.008 1.96875,0.0312 20.10592,-0.37581 32.68912,18.25849 31.9375,39.09375 -0.75162,20.83526 -11.82833,34.75041 -33.4375,34.5625 -17.66315,0 -31.40666,-11.99878 -31.21875,-27.03125 l 18.0625,0 c 0,5.63718 6.39164,12 13.15625,12 7.14042,-0.37581 13.53044,-6.00122 13.90625,-19.90625 0.37582,-13.90504 -4.88596,-22.34375 -14.28125,-22.34375 -5.07346,-0.1879 -11.61379,1.87821 -12.03125,10.6875 L 180.375,198 c -0.72813,-15.10881 11.08297,-27.39888 31.125,-27.46875 z m 71.40625,18.28125 13.53125,0 0,59.8125 -13.53125,0 0,-59.8125 z m 28.375,0 15.6875,0 25.9375,45.40625 0,-45.40625 10.65625,0 0,59.8125 -16.1875,0 -25.6875,-44.5625 0,44.5625 -10.65625,0 0.25,-59.8125 z m 68.1875,0 33.40625,0 0,11.0625 -21.59375,0 0,12.71875 20.125,0 0,10.53125 -20,0 0,15.40625 21.21875,0 0,10.09375 -33.15625,0 0,-59.8125 z m 93.28125,0 16.0625,0 0,59.8125 -11.75,0 0,-46.3125 -14.84375,46.3125 -11.78125,0 -14.3125,-46.5625 0,46.5625 -11.0625,0 0,-58.875 17.6875,0 14.46875,44.875 15.53125,-45.8125 z m 44.84375,0 15.125,0 21.34375,59.8125 -13.90625,0 -4.59375,-13.625 -20.8125,0 -4.71875,13.625 -13.78125,0 21.34375,-59.8125 z m 65.40625,0 12.40625,0 0,49.71875 24.875,0 0,10.09375 -37.03125,0 -0.25,-59.8125 z m 46.875,0 12.84375,0 0,59.8125 -12.4375,0 -0.40625,-59.8125 z m 27.5625,0 25,0.28125 c 6.43235,0.17753 18.15183,3.86434 18.21875,15.65625 -0.0396,6.35525 -2.57365,10.99395 -8.90625,13.09375 5.84241,1.55854 9.73989,4.86229 9.875,12.96875 0.1351,10.13309 -6.63621,17.67739 -16.09375,17.8125 l -27.8125,0 -0.28125,-59.8125 z m 56.1875,0 22.71875,0 c 12.32361,0.19107 18.96855,10.81271 19.03125,18.78125 -0.12832,8.73283 -6.13275,13.36786 -12,15.65625 l 18.375,25.375 -14.5,0 -14.15625,-22.40625 -6.75,0 0,22.40625 -12.71875,0 0,-59.8125 z m 55,0 34.46875,0 0,10.9375 -21.90625,0 0,13.25 20.6875,0 0,10.53125 -20.6875,0 0,14.46875 21.625,0 0,10.625 -34.59375,0 0.40625,-59.8125 z m -243.46875,10.125 -7.28125,25.125 14.84375,-0.40625 -7.5625,-24.71875 z m 145.125,0.6875 0,13.21875 10.1875,0 c 4.05323,0 6.9369,-2.73745 7.375,-6.1875 0.056,-3.06791 -2.83846,-6.78654 -7.375,-7.03125 l -10.1875,0 z m 56.0625,0.53125 0,15.8125 7.59375,-0.0937 c 5.24021,0.0673 8.36039,-4.47208 8.28125,-8.03125 0.0164,-3.94131 -3.54335,-7.78304 -9.375,-7.6875 l -6.5,0 z M 670.40625,223 l 0,15.25 11.875,0 c 1.82293,0.0927 6.35479,-2.02216 6.625,-7.15625 0.27022,-5.1341 -4.46328,-8.09374 -6.625,-8.09375 l -11.875,0 z"
               id="path3814"
               transform="translate(0,-16)"
               inkscape:connector-curvature="0" />
          </g>
        </g>
      </g>
    </g>
  </g>
</svg>
