<?xml version="1.0" encoding="UTF-8" standalone="no"?>
<!-- Created with Inkscape (http://www.inkscape.org/) -->

<svg
   xmlns:dc="http://purl.org/dc/elements/1.1/"
   xmlns:cc="http://creativecommons.org/ns#"
   xmlns:rdf="http://www.w3.org/1999/02/22-rdf-syntax-ns#"
   xmlns:svg="http://www.w3.org/2000/svg"
   xmlns="http://www.w3.org/2000/svg"
   xmlns:sodipodi="http://sodipodi.sourceforge.net/DTD/sodipodi-0.dtd"
   xmlns:inkscape="http://www.inkscape.org/namespaces/inkscape"
   width="220"
   height="80"
   id="svg4011"
   version="1.1"
   inkscape:version="0.48.4 r9939"
   sodipodi:docname="logosimplonvemaster.svg">
  <defs
     id="defs4013" />
  <sodipodi:namedview
     id="base"
     pagecolor="#ffffff"
     bordercolor="#666666"
     borderopacity="1.0"
     inkscape:pageopacity="0.0"
     inkscape:pageshadow="2"
     inkscape:zoom="1.4"
     inkscape:cx="148.7122"
     inkscape:cy="63.698203"
     inkscape:document-units="px"
     inkscape:current-layer="layer1"
     showgrid="false"
     inkscape:window-width="1244"
     inkscape:window-height="603"
     inkscape:window-x="295"
     inkscape:window-y="67"
     inkscape:window-maximized="0"
     showguides="true"
     inkscape:guide-bbox="true" />
  <metadata
     id="metadata4016">
    <rdf:RDF>
      <cc:Work
         rdf:about="">
        <dc:format>image/svg+xml</dc:format>
        <dc:type
           rdf:resource="http://purl.org/dc/dcmitype/StillImage" />
        <dc:title></dc:title>
      </cc:Work>
    </rdf:RDF>
  </metadata>
  <g
     inkscape:label="Calque 1"
     inkscape:groupmode="layer"
     id="layer1"
     transform="translate(0,-972.36218)">
    <rect
       style="fill:#efc308;fill-opacity:1;stroke:none;display:inline"
       id="rect3957"
       width="5.6546483"
       height="5.8400469"
       x="157.62535"
       y="997.74658" />
    <path
       sodipodi:type="arc"
       style="fill:#010101;fill-opacity:1;stroke:none;display:inline"
       id="path3922"
       sodipodi:cx="2648.2634"
       sodipodi:cy="2262.6082"
       sodipodi:rx="13.930511"
       sodipodi:ry="13.930511"
       d="m 2662.1939,2262.6082 c 0,7.6936 -6.2369,13.9305 -13.9305,13.9305 -7.6936,0 -13.9305,-6.2369 -13.9305,-13.9305 0,-7.6937 6.2369,-13.9306 13.9305,-13.9306 7.6936,0 13.9305,6.2369 13.9305,13.9306 z"
       transform="matrix(0.09421632,0,0,0.0836802,-76.959731,857.65886)" />
    <path
       style="fill:#789c3c;fill-opacity:1;stroke:none;display:inline"
       d="m 170.79929,1028.2084 8.84261,19.7917 2.78876,-0.026 c 0,0 9.66539,-22.2608 10.18978,-23.6155 0.52439,-1.3547 2.08632,-4.747 6.16153,-5.3749 -3.78703,0.052 -7.76028,3.2981 -8.85275,5.8326 -1.09247,2.5346 -8.92251,19.6848 -8.92251,19.6848 l -7.05846,-16.3085 z"
       id="path3924"
       inkscape:connector-curvature="0"
       sodipodi:nodetypes="cccccsccc" />
    <rect
       style="fill:#efc308;fill-opacity:1;stroke:none;display:inline"
       id="rect3926"
       width="2.9688418"
       height="7.3566022"
       x="192.88071"
       y="1028.1057" />
    <path
       style="fill:#075387;fill-opacity:1;stroke:none;display:inline"
       d="m 198.1658,1028.1378 15.74341,0.031 0.0154,2.5029 -12.76158,-0.031 -0.0309,5.9945 12.57618,-0.062 -0.0154,2.5183 -12.62252,-0.015 -0.0309,6.2727 13.19418,-0.077 0,2.5492 -16.09875,0.031 z"
       id="path3928"
       inkscape:connector-curvature="0"
       sodipodi:nodetypes="ccccccccccccc" />
    <path
       style="fill:#010101;fill-opacity:1;stroke:none;display:inline"
       d="m 2.1373547,1003.6895 c 1.310964,9.3952 11.6236823,13.3064 18.7904853,8.4338 7.166803,-4.8725 4.632073,-13.0222 3.889194,-14.55166 -5.243856,-9.08935 -14.333207,-6.11783 -14.9012923,-13.15334 -0.0874,-1.39836 0.7428793,-3.75809 2.5782293,-4.28248 2.184941,-0.65548 4.632073,-0.56808 5.85564,3.7144 l 4.282483,-1.70426 c -1.442061,-4.58837 -6.336327,-7.90948 -12.017171,-5.85564 -6.3800253,3.01522 -5.8119413,9.13305 -4.9816643,10.9684 3.627001,7.69099 10.4003153,5.15646 14.6391003,11.49279 1.747951,3.40849 1.485758,7.47249 -2.141242,10.09439 -2.403435,1.8791 -10.3129173,2.9715 -11.4053883,-6.7733 z"
       id="path3876"
       inkscape:connector-curvature="0"
       sodipodi:nodetypes="czccccccccccc" />
    <rect
       style="fill:#010101;fill-opacity:1;stroke:none;display:inline"
       id="rect3878"
       width="4.6884985"
       height="37.627598"
       x="34.555901"
       y="976.19952" />
    <path
       style="fill:#010101;fill-opacity:1;stroke:none;display:inline"
       d="m 48.85668,1013.8148 0.0053,-37.66307 5.135242,0 12.040584,15.85956 12.04058,-15.83926 5.02755,0.0309 0.005,37.58097 -4.74507,-0.062 0.0565,-30.66157 -12.40516,16.41575 -12.364572,-16.23036 0.0309,30.57418 z"
       id="path3880"
       inkscape:connector-curvature="0"
       sodipodi:nodetypes="ccccccccccccc" />
    <path
       style="fill:#010101;fill-opacity:1;stroke:none;display:inline"
       d="m 102.90109,976.16384 -10.351744,0.0922 -0.0132,37.55866 4.75707,0.016 -0.0158,-12.3747 5.894974,-0.021 c 5.09759,-0.027 11.7188,-5.21566 11.7188,-12.63279 0,-7.32324 -6.59146,-12.61054 -11.99011,-12.6381 z m -1.06415,4.10909 c 4.85892,0.0941 8.36261,3.92342 8.29457,8.96099 -0.007,5.5 -5.36528,8.12272 -7.43061,8.12861 l -5.423474,0.0158 -0.029,-17.0422 4.588484,-0.0632 z"
       id="path3882"
       inkscape:connector-curvature="0" />
    <path
       style="fill:#010101;fill-opacity:1;stroke:none;display:inline"
       d="m 123.41938,1013.7694 0.0309,-37.57402 4.72765,-0.0309 0.0309,33.52622 13.53408,0.031 -1e-5,4.0169 z"
       id="path3887"
       inkscape:connector-curvature="0"
       sodipodi:nodetypes="ccccccc" />
    <path
       style="fill:#efc308;fill-opacity:1;stroke:none;display:inline"
       d="m 161.06843,975.68709 c -0.18152,-0.002 -0.36454,0 -0.54788,0.003 -11.73357,0.1854 -19.16528,9.62956 -19.4655,19.41809 -0.30021,9.78852 8.65956,19.33622 19.69993,19.27322 11.04039,-0.063 19.55769,-9.4083 19.55769,-19.19683 0,-9.6356 -7.80809,-19.37209 -19.24424,-19.49711 z m -0.78494,4.18547 c 8.74324,0.0879 15.206,6.33338 15.09301,15.50392 -0.113,9.17052 -7.4135,14.94132 -14.9297,14.90072 -7.5162,-0.041 -14.62799,-7.4959 -14.7216,-14.71371 -0.0936,-7.21779 5.81505,-15.77886 14.55829,-15.69093 z m -2.62613,7.69401 0,5.68424 5.68425,0 0,-5.68424 -5.68425,0 z m -0.0632,10.19634 0,0.1238 5.68688,0 0,5.62369 0.0606,0 0,-5.74749 -5.74747,0 z m 5.68688,5.74749 -5.68688,0 0,0.063 5.68688,0 0,-0.063 z"
       id="path3889"
       inkscape:connector-curvature="0" />
    <path
       style="fill:#010101;fill-opacity:1;stroke:none;display:inline"
       d="m 184.73437,1013.8095 0.0777,-37.60566 4.67707,0.004 21.43891,30.11156 -0.0671,-30.10096 4.73447,-0.005 0.005,37.59066 -5.25355,-0.02 -20.87304,-29.1908 0.0203,29.2005 z"
       id="path3916"
       inkscape:connector-curvature="0"
       sodipodi:nodetypes="ccccccccccc" />
  </g>
</svg>
