<?xml version="1.0" encoding="UTF-8" standalone="no"?>
<!-- Created with Inkscape (http://www.inkscape.org/) -->

<svg
   xmlns:dc="http://purl.org/dc/elements/1.1/"
   xmlns:cc="http://creativecommons.org/ns#"
   xmlns:rdf="http://www.w3.org/1999/02/22-rdf-syntax-ns#"
   xmlns:svg="http://www.w3.org/2000/svg"
   xmlns="http://www.w3.org/2000/svg"
   xmlns:sodipodi="http://sodipodi.sourceforge.net/DTD/sodipodi-0.dtd"
   xmlns:inkscape="http://www.inkscape.org/namespaces/inkscape"
   id="svg4924"
   version="1.1"
   inkscape:version="0.48.4 r9939"
   width="50"
   height="50"
   sodipodi:docname="twittersansfond.svg">
  <metadata
     id="metadata4930">
    <rdf:RDF>
      <cc:Work
         rdf:about="">
        <dc:format>image/svg+xml</dc:format>
        <dc:type
           rdf:resource="http://purl.org/dc/dcmitype/StillImage" />
        <dc:title></dc:title>
      </cc:Work>
    </rdf:RDF>
  </metadata>
  <defs
     id="defs4928" />
  <sodipodi:namedview
     pagecolor="#ffffff"
     bordercolor="#666666"
     borderopacity="1"
     objecttolerance="10"
     gridtolerance="10"
     guidetolerance="10"
     inkscape:pageopacity="0"
     inkscape:pageshadow="2"
     inkscape:window-width="1600"
     inkscape:window-height="876"
     id="namedview4926"
     showgrid="false"
     inkscape:zoom="12.596112"
     inkscape:cx="2.4217391"
     inkscape:cy="27.384242"
     inkscape:window-x="0"
     inkscape:window-y="24"
     inkscape:window-maximized="1"
     inkscape:current-layer="svg4924"
     showguides="true"
     inkscape:guide-bbox="true">
    <sodipodi:guide
       orientation="0,1"
       position="60.09791,50.094823"
       id="guide2989" />
    <sodipodi:guide
       orientation="0,1"
       position="-5.0809329,0.079389577"
       id="guide2991" />
    <sodipodi:guide
       orientation="1,0"
       position="0.079389577,11.511489"
       id="guide2993" />
    <sodipodi:guide
       orientation="1,0"
       position="50.253602,51.920783"
       id="guide2995" />
  </sodipodi:namedview>
  <path
     style="fill:#ffffff;fill-opacity:1;stroke:#ffffff;stroke-width:0.0615128px;stroke-linecap:butt;stroke-linejoin:miter;stroke-opacity:1"
     d="m 1.4326476,1.0690603 -0.46881478,47.0376387 47.97527018,0 -0.312543,-46.88137 z"
     id="path3771"
     inkscape:connector-curvature="0" />
  <path
     style="fill:#407ca7;fill-opacity:1;stroke:none;stroke-width:0.03682329000000000px;stroke-linecap:butt;stroke-linejoin:miter;stroke-opacity:1"
     d="m -0.20338693,-0.42584538 0,50.93452838 51.01142093,0 0,-50.93452838 -51.01142093,0 z M 33.29803,8.9510146 c 0.06747,-0.00142 0.134663,-0.001 0.201839,0 4.299659,0.066144 4.957632,1.2150874 6.84522,2.6469724 1.8094,-0.210484 4.649091,-1.335795 5.466954,-2.1683281 -0.330746,1.3891231 -1.83663,3.9168621 -3.90799,4.8556691 1.95122,-0.18377 3.722648,-0.6653 5.038286,-1.395573 -0.508562,0.789891 -1.995165,2.878488 -4.248229,4.528879 0,4.828854 -1.257195,13.891629 -9.128884,20.374197 -7.871696,6.482569 -19.479584,6.977445 -28.5419458,1.387883 4.4650323,0.23152 8.3007948,-0.26376 12.7658308,-3.604266 -5.55649,-0.165372 -7.574335,-4.398398 -8.1696709,-5.985966 1.1575989,0.1323 1.9523579,0.297332 3.9368199,-0.132633 -3.075915,-0.893006 -6.5486838,-2.811854 -6.9125026,-8.632936 0.7276361,0.46304 1.4877388,0.959101 4.0675366,1.289844 C 9.2560219,20.957154 4.5934894,17.318258 7.9009276,10.604169 11.406806,15.135354 19.055576,19.628911 25.670442,19.496613 24.287908,13.571145 29.047713,9.0284052 33.29803,8.9510146 z"
     id="path4934"
     inkscape:connector-curvature="0" />
</svg>
